<svg xmlns="http://www.w3.org/2000/svg" viewBox="0 0 24 24">
  <!-- Fotufilm glyphs, Copyright 2026 MUAStudio Inc., CC BY-SA 4.0 (https://creativecommons.org/licenses/by-sa/4.0/), https://fotufilm.com, see licenses/GLYPHS.txt -->
  <path d="M3.75 8.5V6a2.25 2.25 0 0 1 2.25-2.25h2.5M15.5 3.75H18A2.25 2.25 0 0 1 20.25 6v2.5M20.25 15.5V18A2.25 2.25 0 0 1 18 20.25h-2.5M8.5 20.25H6A2.25 2.25 0 0 1 3.75 18v-2.5" stroke-width="1.5" data-mode="stroke" data-layer="primary"/>
  <path d="M9 9H15A1 1 0 0 1 16 10V14A1 1 0 0 1 15 15H9A1 1 0 0 1 8 14V10A1 1 0 0 1 9 9z" stroke-width="1.5" data-mode="stroke" data-layer="secondary" opacity="0.42"/>
</svg>
