<svg xmlns="http://www.w3.org/2000/svg" viewBox="0 0 24 24"><!-- Fotufilm glyphs, Copyright 2026 MUAStudio Inc., CC BY-SA 4.0 (https://creativecommons.org/licenses/by-sa/4.0/), https://fotufilm.com, see licenses/GLYPHS.txt --><path fill="var(--fotu-systemOrange, #FF9F0A)" opacity="0.45" data-layer="tertiary" d="M21,5.5 L21,19 C17.2,18.4 14,17 13.2,13.8 C12.4,10.6 14.8,7.2 21,5.5 Z"/><path fill="var(--fotu-systemRed, #FF453A)" data-layer="secondary" d="M21,8.6 L21,16.8 C18.8,16.4 17.2,15.4 16.8,13.6 C16.4,11.8 17.6,9.8 21,8.6 Z"/><path fill="currentColor" data-layer="primary" d="M5,3.7 L19,3.7 Q21.8,3.7 21.8,6.5 L21.8,17.5 Q21.8,20.3 19,20.3 L5,20.3 Q2.2,20.3 2.2,17.5 L2.2,6.5 Q2.2,3.7 5,3.7 Z M5,5.3 Q3.8,5.3 3.8,6.5 L3.8,17.5 Q3.8,18.7 5,18.7 L19,18.7 Q20.2,18.7 20.2,17.5 L20.2,6.5 Q20.2,5.3 19,5.3 Z"/></svg>
