<svg xmlns="http://www.w3.org/2000/svg" viewBox="0 0 24 24"><!-- Fotufilm glyphs, Copyright 2026 MUAStudio Inc., CC BY-SA 4.0 (https://creativecommons.org/licenses/by-sa/4.0/), https://fotufilm.com, see licenses/GLYPHS.txt --><path fill="currentColor" data-layer="primary" d="M6.5,2.7 L17.5,2.7 Q18.3,2.7 18.3,3.5 Q18.3,4.3 17.5,4.3 L17.214,4.3 Q16.743,6.474 13.688,8.425 C13.684,8.429 13.681,8.432 13.677,8.436 Q17.3,10.298 17.3,12 Q17.3,13.703 13.674,15.566 Q16.742,17.521 17.214,19.7 L17.5,19.7 Q18.3,19.7 18.3,20.5 Q18.3,21.3 17.5,21.3 L6.5,21.3 Q5.7,21.3 5.7,20.5 Q5.7,19.7 6.5,19.7 L6.786,19.7 Q7.258,17.521 10.326,15.566 Q6.7,13.703 6.7,12 Q6.7,10.298 10.323,8.436 C10.319,8.432 10.316,8.429 10.312,8.425 Q7.257,6.474 6.786,4.3 L6.5,4.3 Q5.7,4.3 5.7,3.5 Q5.7,2.7 6.5,2.7 Z M12.446,9.61 C12.174,9.938 12,10.263 12,10.6 C12,10.263 11.826,9.938 11.554,9.61 Q11.526,9.624 11.497,9.638 Q8.3,11.191 8.3,12 Q8.3,12.809 11.497,14.362 Q11.754,14.487 12,14.613 Q12.246,14.487 12.503,14.362 Q15.7,12.809 15.7,12 Q15.7,11.191 12.503,9.638 Q12.474,9.624 12.446,9.61 Z M12,16.425 Q9.034,18.078 8.445,19.7 L15.555,19.7 Q14.966,18.078 12,16.425 Z M8.445,4.3 Q8.752,5.146 9.706,6 L14.294,6 Q15.248,5.146 15.555,4.3 L8.445,4.3 Z"/></svg>
