<svg xmlns="http://www.w3.org/2000/svg" viewBox="0 0 24 24"><!-- Fotufilm glyphs, Copyright 2026 MUAStudio Inc., CC BY-SA 4.0 (https://creativecommons.org/licenses/by-sa/4.0/), https://fotufilm.com, see licenses/GLYPHS.txt --><path fill="currentColor" data-layer="primary" d="M3.7,12 L3.7,10 Q3.7,6.2 7.5,6.2 L17.569,6.2 L16.814,5.446 Q16.249,4.88 16.814,4.314 Q17.38,3.749 17.946,4.314 L19.9,6.269 Q20.175,6.382 20.261,6.685 Q20.436,7 20.261,7.315 Q20.175,7.618 19.9,7.731 L17.946,9.686 Q17.38,10.251 16.814,9.686 Q16.249,9.12 16.814,8.554 L17.569,7.8 L7.5,7.8 Q5.3,7.8 5.3,10 L5.3,12 Q5.3,12.8 4.5,12.8 Q3.7,12.8 3.7,12 Z M20.3,12 L20.3,14 Q20.3,17.8 16.5,17.8 L6.431,17.8 L7.186,18.554 Q7.469,18.837 7.469,19.12 Q7.469,19.403 7.186,19.686 Q6.62,20.251 6.054,19.686 L4.1,17.731 Q3.825,17.618 3.739,17.315 Q3.564,17 3.739,16.685 Q3.825,16.382 4.1,16.269 L6.054,14.314 Q6.62,13.749 7.186,14.314 Q7.751,14.88 7.186,15.446 L6.431,16.2 L16.5,16.2 Q18.7,16.2 18.7,14 L18.7,12 Q18.7,11.2 19.5,11.2 Q20.3,11.2 20.3,12 Z"/></svg>
