<svg xmlns="http://www.w3.org/2000/svg" viewBox="0 0 24 24"><!-- Fotufilm glyphs, Copyright 2026 MUAStudio Inc., CC BY-SA 4.0 (https://creativecommons.org/licenses/by-sa/4.0/), https://fotufilm.com, see licenses/GLYPHS.txt --><path fill="currentColor" data-layer="primary" d="M2.788,12.147 Q5.131,5.691 12,5.691 Q18.869,5.691 21.212,12.147 Q21.348,12.523 21.229,12.779 Q21.109,13.036 20.733,13.172 Q19.981,13.445 19.708,12.693 Q17.747,7.291 12,7.291 Q6.253,7.291 4.292,12.693 Q4.019,13.445 3.267,13.172 Q2.891,13.036 2.771,12.779 Q2.652,12.523 2.788,12.147 Z"/><path fill="currentColor" opacity="0.42" data-layer="secondary" d="M7.152,10.96 L6.502,10.2 Q5.982,9.592 6.59,9.072 Q6.894,8.812 7.176,8.834 Q7.458,8.856 7.718,9.16 L8.368,9.92 Q8.888,10.528 8.28,11.048 Q7.672,11.568 7.152,10.96 Z M15.632,9.92 L16.282,9.16 Q16.802,8.552 17.41,9.072 Q18.018,9.592 17.498,10.2 L16.848,10.96 Q16.328,11.568 15.72,11.048 Q15.112,10.528 15.632,9.92 Z M11.2,8.9 L11.2,7.9 Q11.2,7.1 12,7.1 Q12.8,7.1 12.8,7.9 L12.8,8.9 Q12.8,9.7 12,9.7 Q11.2,9.7 11.2,8.9 Z M13.508,9.028 L13.848,8.088 Q14.12,7.336 14.872,7.608 Q15.624,7.88 15.352,8.632 L15.012,9.572 Q14.74,10.324 13.988,10.052 Q13.236,9.78 13.508,9.028 Z M8.988,9.572 L8.648,8.632 Q8.376,7.88 9.128,7.608 Q9.88,7.336 10.152,8.088 L10.492,9.028 Q10.764,9.78 10.012,10.052 Q9.26,10.324 8.988,9.572 Z"/><path fill="currentColor" data-layer="primary" d="M13.45,15.5 C13.45,16.301 12.801,16.95 12,16.95 C11.199,16.95 10.55,16.301 10.55,15.5 C10.55,14.746 11.126,14.126 11.862,14.056 L14.594,8.924 Q14.97,8.218 15.676,8.594 Q16.382,8.97 16.006,9.676 L13.275,14.808 C13.386,15.014 13.45,15.249 13.45,15.5 Z"/><path fill="currentColor" opacity="0.42" data-layer="secondary" d="M7.5,18.7 L16.5,18.7 Q17.3,18.7 17.3,19.5 Q17.3,20.3 16.5,20.3 L7.5,20.3 Q6.7,20.3 6.7,19.5 Q6.7,18.7 7.5,18.7 Z"/></svg>
