<?xml version="1.0" encoding="UTF-8"?>
<!DOCTYPE svg PUBLIC "-//W3C//DTD SVG 1.1//EN" "http://www.w3.org/Graphics/SVG/1.1/DTD/svg11.dtd">
<svg version="1.1" xmlns="http://www.w3.org/2000/svg" xmlns:xlink="http://www.w3.org/1999/xlink" viewBox="0 0 3300 2200">
 <!--glyph: "fotu.ui.history", generated by tools/build-glyphs.py. Fotufilm glyphs, Copyright 2026 MUAStudio Inc., CC BY-SA 4.0 (https://creativecommons.org/licenses/by-sa/4.0/), https://fotufilm.com, see licenses/GLYPHS.txt-->
 <style>.monochrome-0 {}
.multicolor-0:labelColor {}
.hierarchical-0:primary {}
.SFSymbolsPreviewWireframe {fill:none;opacity:1.0;stroke:black;stroke-width:0.5}
</style>
 <g id="Notes">
  <rect height="2200" id="artboard" style="fill:white;opacity:1" width="3300" x="0" y="0"/>
  <text id="template-version" style="stroke:none;fill:black;font-family:sans-serif;font-size:13;text-anchor:end;" transform="matrix(1 0 0 1 3036 1933)">Template v.6.0</text>
  <text id="descriptive-name" style="stroke:none;fill:black;font-family:sans-serif;font-size:13;text-anchor:end;" transform="matrix(1 0 0 1 3036 1969)">fotu.ui.history</text>
 </g>
 <g id="Guides">
  <line id="Baseline-S" style="fill:none;stroke:#27AAE1;opacity:1;stroke-width:0.5;" x1="263" x2="3036" y1="696" y2="696"/>
  <line id="Capline-S" style="fill:none;stroke:#27AAE1;opacity:1;stroke-width:0.5;" x1="263" x2="3036" y1="625.54" y2="625.54"/>
  <line id="Baseline-M" style="fill:none;stroke:#27AAE1;opacity:1;stroke-width:0.5;" x1="263" x2="3036" y1="1126" y2="1126"/>
  <line id="Capline-M" style="fill:none;stroke:#27AAE1;opacity:1;stroke-width:0.5;" x1="263" x2="3036" y1="1055.54" y2="1055.54"/>
  <line id="Baseline-L" style="fill:none;stroke:#27AAE1;opacity:1;stroke-width:0.5;" x1="263" x2="3036" y1="1556" y2="1556"/>
  <line id="Capline-L" style="fill:none;stroke:#27AAE1;opacity:1;stroke-width:0.5;" x1="263" x2="3036" y1="1485.54" y2="1485.54"/>
  <line id="left-margin-Ultralight-S" style="fill:none;stroke:#00AEEF;stroke-width:0.5;opacity:1.0;" x1="525.891" x2="525.891" y1="601.0" y2="721.0"/>
  <line id="right-margin-Ultralight-S" style="fill:none;stroke:#FF3B30;stroke-width:0.5;opacity:1.0;" x1="593.531" x2="593.531" y1="601.0" y2="721.0"/>
  <line id="left-margin-Ultralight-M" style="fill:none;stroke:#00AEEF;stroke-width:0.5;opacity:1.0;" x1="516.518" x2="516.518" y1="1031.0" y2="1151.0"/>
  <line id="right-margin-Ultralight-M" style="fill:none;stroke:#FF3B30;stroke-width:0.5;opacity:1.0;" x1="602.904" x2="602.904" y1="1031.0" y2="1151.0"/>
  <line id="left-margin-Ultralight-L" style="fill:none;stroke:#00AEEF;stroke-width:0.5;opacity:1.0;" x1="503.992" x2="503.992" y1="1461.0" y2="1581.0"/>
  <line id="right-margin-Ultralight-L" style="fill:none;stroke:#FF3B30;stroke-width:0.5;opacity:1.0;" x1="615.430" x2="615.430" y1="1461.0" y2="1581.0"/>
  <line id="left-margin-Thin-S" style="fill:none;stroke:#00AEEF;stroke-width:0.5;opacity:1.0;" x1="822.103" x2="822.103" y1="601.0" y2="721.0"/>
  <line id="right-margin-Thin-S" style="fill:none;stroke:#FF3B30;stroke-width:0.5;opacity:1.0;" x1="890.741" x2="890.741" y1="601.0" y2="721.0"/>
  <line id="left-margin-Thin-M" style="fill:none;stroke:#00AEEF;stroke-width:0.5;opacity:1.0;" x1="812.592" x2="812.592" y1="1031.0" y2="1151.0"/>
  <line id="right-margin-Thin-M" style="fill:none;stroke:#FF3B30;stroke-width:0.5;opacity:1.0;" x1="900.252" x2="900.252" y1="1031.0" y2="1151.0"/>
  <line id="left-margin-Thin-L" style="fill:none;stroke:#00AEEF;stroke-width:0.5;opacity:1.0;" x1="799.882" x2="799.882" y1="1461.0" y2="1581.0"/>
  <line id="right-margin-Thin-L" style="fill:none;stroke:#FF3B30;stroke-width:0.5;opacity:1.0;" x1="912.962" x2="912.962" y1="1461.0" y2="1581.0"/>
  <line id="left-margin-Light-S" style="fill:none;stroke:#00AEEF;stroke-width:0.5;opacity:1.0;" x1="1118.016" x2="1118.016" y1="601.0" y2="721.0"/>
  <line id="right-margin-Light-S" style="fill:none;stroke:#FF3B30;stroke-width:0.5;opacity:1.0;" x1="1188.250" x2="1188.250" y1="601.0" y2="721.0"/>
  <line id="left-margin-Light-M" style="fill:none;stroke:#00AEEF;stroke-width:0.5;opacity:1.0;" x1="1108.284" x2="1108.284" y1="1031.0" y2="1151.0"/>
  <line id="right-margin-Light-M" style="fill:none;stroke:#FF3B30;stroke-width:0.5;opacity:1.0;" x1="1197.982" x2="1197.982" y1="1031.0" y2="1151.0"/>
  <line id="left-margin-Light-L" style="fill:none;stroke:#00AEEF;stroke-width:0.5;opacity:1.0;" x1="1095.278" x2="1095.278" y1="1461.0" y2="1581.0"/>
  <line id="right-margin-Light-L" style="fill:none;stroke:#FF3B30;stroke-width:0.5;opacity:1.0;" x1="1210.988" x2="1210.988" y1="1461.0" y2="1581.0"/>
  <line id="left-margin-Regular-S" style="fill:none;stroke:#00AEEF;stroke-width:0.5;opacity:1.0;" x1="1413.730" x2="1413.730" y1="601.0" y2="721.0"/>
  <line id="right-margin-Regular-S" style="fill:none;stroke:#FF3B30;stroke-width:0.5;opacity:1.0;" x1="1485.958" x2="1485.958" y1="601.0" y2="721.0"/>
  <line id="left-margin-Regular-M" style="fill:none;stroke:#00AEEF;stroke-width:0.5;opacity:1.0;" x1="1403.721" x2="1403.721" y1="1031.0" y2="1151.0"/>
  <line id="right-margin-Regular-M" style="fill:none;stroke:#FF3B30;stroke-width:0.5;opacity:1.0;" x1="1495.967" x2="1495.967" y1="1031.0" y2="1151.0"/>
  <line id="left-margin-Regular-L" style="fill:none;stroke:#00AEEF;stroke-width:0.5;opacity:1.0;" x1="1390.345" x2="1390.345" y1="1461.0" y2="1581.0"/>
  <line id="right-margin-Regular-L" style="fill:none;stroke:#FF3B30;stroke-width:0.5;opacity:1.0;" x1="1509.343" x2="1509.343" y1="1461.0" y2="1581.0"/>
  <line id="left-margin-Medium-S" style="fill:none;stroke:#00AEEF;stroke-width:0.5;opacity:1.0;" x1="1709.942" x2="1709.942" y1="601.0" y2="721.0"/>
  <line id="right-margin-Medium-S" style="fill:none;stroke:#FF3B30;stroke-width:0.5;opacity:1.0;" x1="1783.168" x2="1783.168" y1="601.0" y2="721.0"/>
  <line id="left-margin-Medium-M" style="fill:none;stroke:#00AEEF;stroke-width:0.5;opacity:1.0;" x1="1699.795" x2="1699.795" y1="1031.0" y2="1151.0"/>
  <line id="right-margin-Medium-M" style="fill:none;stroke:#FF3B30;stroke-width:0.5;opacity:1.0;" x1="1793.315" x2="1793.315" y1="1031.0" y2="1151.0"/>
  <line id="left-margin-Medium-L" style="fill:none;stroke:#00AEEF;stroke-width:0.5;opacity:1.0;" x1="1686.234" x2="1686.234" y1="1461.0" y2="1581.0"/>
  <line id="right-margin-Medium-L" style="fill:none;stroke:#FF3B30;stroke-width:0.5;opacity:1.0;" x1="1806.876" x2="1806.876" y1="1461.0" y2="1581.0"/>
  <line id="left-margin-Semibold-S" style="fill:none;stroke:#00AEEF;stroke-width:0.5;opacity:1.0;" x1="2006.808" x2="2006.808" y1="601.0" y2="721.0"/>
  <line id="right-margin-Semibold-S" style="fill:none;stroke:#FF3B30;stroke-width:0.5;opacity:1.0;" x1="2079.724" x2="2079.724" y1="601.0" y2="721.0"/>
  <line id="left-margin-Semibold-M" style="fill:none;stroke:#00AEEF;stroke-width:0.5;opacity:1.0;" x1="1996.704" x2="1996.704" y1="1031.0" y2="1151.0"/>
  <line id="right-margin-Semibold-M" style="fill:none;stroke:#FF3B30;stroke-width:0.5;opacity:1.0;" x1="2089.828" x2="2089.828" y1="1031.0" y2="1151.0"/>
  <line id="left-margin-Semibold-L" style="fill:none;stroke:#00AEEF;stroke-width:0.5;opacity:1.0;" x1="1983.201" x2="1983.201" y1="1461.0" y2="1581.0"/>
  <line id="right-margin-Semibold-L" style="fill:none;stroke:#FF3B30;stroke-width:0.5;opacity:1.0;" x1="2103.331" x2="2103.331" y1="1461.0" y2="1581.0"/>
  <line id="left-margin-Bold-S" style="fill:none;stroke:#00AEEF;stroke-width:0.5;opacity:1.0;" x1="2302.931" x2="2302.931" y1="601.0" y2="721.0"/>
  <line id="right-margin-Bold-S" style="fill:none;stroke:#FF3B30;stroke-width:0.5;opacity:1.0;" x1="2377.023" x2="2377.023" y1="601.0" y2="721.0"/>
  <line id="left-margin-Bold-M" style="fill:none;stroke:#00AEEF;stroke-width:0.5;opacity:1.0;" x1="2292.664" x2="2292.664" y1="1031.0" y2="1151.0"/>
  <line id="right-margin-Bold-M" style="fill:none;stroke:#FF3B30;stroke-width:0.5;opacity:1.0;" x1="2387.290" x2="2387.290" y1="1031.0" y2="1151.0"/>
  <line id="left-margin-Bold-L" style="fill:none;stroke:#00AEEF;stroke-width:0.5;opacity:1.0;" x1="2278.944" x2="2278.944" y1="1461.0" y2="1581.0"/>
  <line id="right-margin-Bold-L" style="fill:none;stroke:#FF3B30;stroke-width:0.5;opacity:1.0;" x1="2401.010" x2="2401.010" y1="1461.0" y2="1581.0"/>
  <line id="left-margin-Heavy-S" style="fill:none;stroke:#00AEEF;stroke-width:0.5;opacity:1.0;" x1="2599.054" x2="2599.054" y1="601.0" y2="721.0"/>
  <line id="right-margin-Heavy-S" style="fill:none;stroke:#FF3B30;stroke-width:0.5;opacity:1.0;" x1="2674.322" x2="2674.322" y1="601.0" y2="721.0"/>
  <line id="left-margin-Heavy-M" style="fill:none;stroke:#00AEEF;stroke-width:0.5;opacity:1.0;" x1="2588.624" x2="2588.624" y1="1031.0" y2="1151.0"/>
  <line id="right-margin-Heavy-M" style="fill:none;stroke:#FF3B30;stroke-width:0.5;opacity:1.0;" x1="2684.752" x2="2684.752" y1="1031.0" y2="1151.0"/>
  <line id="left-margin-Heavy-L" style="fill:none;stroke:#00AEEF;stroke-width:0.5;opacity:1.0;" x1="2574.686" x2="2574.686" y1="1461.0" y2="1581.0"/>
  <line id="right-margin-Heavy-L" style="fill:none;stroke:#FF3B30;stroke-width:0.5;opacity:1.0;" x1="2698.690" x2="2698.690" y1="1461.0" y2="1581.0"/>
  <line id="left-margin-Black-S" style="fill:none;stroke:#00AEEF;stroke-width:0.5;opacity:1.0;" x1="2895.177" x2="2895.177" y1="601.0" y2="721.0"/>
  <line id="right-margin-Black-S" style="fill:none;stroke:#FF3B30;stroke-width:0.5;opacity:1.0;" x1="2971.621" x2="2971.621" y1="601.0" y2="721.0"/>
  <line id="left-margin-Black-M" style="fill:none;stroke:#00AEEF;stroke-width:0.5;opacity:1.0;" x1="2884.584" x2="2884.584" y1="1031.0" y2="1151.0"/>
  <line id="right-margin-Black-M" style="fill:none;stroke:#FF3B30;stroke-width:0.5;opacity:1.0;" x1="2982.214" x2="2982.214" y1="1031.0" y2="1151.0"/>
  <line id="left-margin-Black-L" style="fill:none;stroke:#00AEEF;stroke-width:0.5;opacity:1.0;" x1="2870.428" x2="2870.428" y1="1461.0" y2="1581.0"/>
  <line id="right-margin-Black-L" style="fill:none;stroke:#FF3B30;stroke-width:0.5;opacity:1.0;" x1="2996.370" x2="2996.370" y1="1461.0" y2="1581.0"/>
 </g>
 <g id="Symbols">
  <g id="Ultralight-S" transform="matrix(1 0 0 1 525.891 696)">
   <path class="monochrome-0 multicolor-0:labelColor hierarchical-0:primary SFSymbolsPreviewWireframe" d="M39.325,-75.85 L33.096,-68.427 Q56.742,-69.504 65.08,-46.571 Q73.779,-22.645 52.919,-8.049 Q32.059,6.547 12.561,-9.824 Q-6.936,-26.195 3.83,-49.266 Q4.203,-50.064 5.001,-49.692 Q5.4,-49.505 5.507,-49.213 Q5.613,-48.92 5.427,-48.521 Q-4.768,-26.675 13.694,-11.173 Q32.156,4.328 51.909,-9.492 Q71.661,-23.313 63.424,-45.969 Q55.565,-67.585 33.343,-66.674 L40.665,-60.53 Q41.339,-59.964 40.773,-59.289 Q40.207,-58.614 39.532,-59.181 L30.725,-66.571 Q30.592,-66.613 30.493,-66.696 Q30.36,-66.807 30.29,-66.993 Q30.178,-67.157 30.163,-67.33 Q30.148,-67.503 30.229,-67.684 Q30.295,-68.024 30.585,-68.175 L37.975,-76.982 Q38.541,-77.657 39.216,-77.091 Q39.553,-76.807 39.581,-76.497 Q39.608,-76.187 39.325,-75.85 Z M34.794,-51.869 L34.794,-35.679 L45.197,-28.112 Q45.909,-27.594 45.391,-26.882 Q44.873,-26.169 44.161,-26.688 L33.395,-34.518 Q33.032,-34.781 33.032,-35.23 L33.032,-51.869 Q33.032,-52.75 33.913,-52.75 Q34.794,-52.75 34.794,-51.869 Z"/>
  </g>
  <g id="Ultralight-M" transform="matrix(1 0 0 1 516.518 1126)">
   <path class="monochrome-0 multicolor-0:labelColor hierarchical-0:primary SFSymbolsPreviewWireframe" d="M50.223,-87.107 L42.269,-77.628 Q72.467,-79.003 83.116,-49.715 Q94.226,-19.157 67.585,-0.516 Q40.944,18.125 16.043,-2.783 Q-8.859,-23.691 4.892,-53.156 Q5.367,-54.175 6.387,-53.699 Q6.897,-53.462 7.033,-53.088 Q7.168,-52.714 6.931,-52.204 Q-6.09,-24.304 17.489,-4.506 Q41.068,15.292 66.295,-2.359 Q91.521,-20.01 81.001,-48.946 Q70.964,-76.552 42.584,-75.388 L51.934,-67.542 Q52.796,-66.819 52.073,-65.957 Q51.35,-65.095 50.488,-65.818 L39.24,-75.256 Q39.07,-75.31 38.944,-75.416 Q38.774,-75.559 38.684,-75.795 Q38.542,-76.005 38.522,-76.226 Q38.503,-76.447 38.607,-76.678 Q38.69,-77.113 39.061,-77.306 L48.499,-88.553 Q49.223,-89.415 50.084,-88.692 Q50.515,-88.33 50.55,-87.934 Q50.585,-87.538 50.223,-87.107 Z M44.436,-56.48 L44.436,-35.803 L57.723,-26.14 Q58.633,-25.478 57.971,-24.568 Q57.309,-23.658 56.399,-24.32 L42.649,-34.32 Q42.186,-34.657 42.186,-35.23 L42.186,-56.48 Q42.186,-57.605 43.311,-57.605 Q44.436,-57.605 44.436,-56.48 Z"/>
  </g>
  <g id="Ultralight-L" transform="matrix(1 0 0 1 503.992 1556)">
   <path class="monochrome-0 multicolor-0:labelColor hierarchical-0:primary SFSymbolsPreviewWireframe" d="M64.788,-102.151 L54.527,-89.923 Q93.483,-91.697 107.219,-53.915 Q121.551,-14.495 87.184,9.551 Q52.817,33.598 20.695,6.626 Q-11.428,-20.345 6.31,-58.354 Q6.924,-59.669 8.239,-59.056 Q8.897,-58.749 9.072,-58.267 Q9.247,-57.784 8.94,-57.127 Q-7.856,-21.136 22.561,4.403 Q52.978,29.943 85.52,7.173 Q118.062,-15.597 104.491,-52.923 Q91.544,-88.536 54.933,-87.034 L66.995,-76.912 Q68.107,-75.979 67.174,-74.868 Q66.241,-73.756 65.13,-74.689 L50.62,-86.864 Q50.4,-86.933 50.238,-87.07 Q50.019,-87.254 49.902,-87.559 Q49.719,-87.83 49.694,-88.115 Q49.669,-88.4 49.803,-88.698 Q49.911,-89.259 50.389,-89.508 L62.564,-104.017 Q63.497,-105.129 64.609,-104.196 Q65.165,-103.729 65.209,-103.218 Q65.254,-102.707 64.788,-102.151 Z M57.323,-62.642 L57.323,-35.969 L74.462,-23.504 Q75.636,-22.65 74.783,-21.476 Q73.929,-20.303 72.755,-21.156 L55.018,-34.056 Q54.42,-34.491 54.42,-35.23 L54.42,-62.642 Q54.42,-64.094 55.871,-64.094 Q57.323,-64.094 57.323,-62.642 Z"/>
  </g>
  <g id="Thin-S" transform="matrix(1 0 0 1 822.103 696)">
   <path class="monochrome-0 multicolor-0:labelColor hierarchical-0:primary SFSymbolsPreviewWireframe" d="M40.199,-75.535 L34.677,-68.954 Q57.773,-69.476 66.039,-46.739 Q74.867,-22.459 53.699,-7.648 Q32.532,7.163 12.747,-9.449 Q-7.039,-26.062 3.887,-49.473 Q4.176,-50.094 4.632,-50.259 Q5.087,-50.425 5.708,-50.135 Q6.95,-49.556 6.37,-48.314 Q-3.666,-26.809 14.509,-11.548 Q32.684,3.712 52.128,-9.893 Q71.573,-23.499 63.464,-45.802 Q55.959,-66.445 35.148,-66.218 L41.479,-60.905 Q42.529,-60.024 41.648,-58.975 Q40.767,-57.925 39.717,-58.806 L31.02,-66.104 Q30.813,-66.169 30.659,-66.298 Q30.453,-66.472 30.343,-66.76 Q29.996,-67.272 30.249,-67.836 Q30.351,-68.365 30.802,-68.6 L38.1,-77.297 Q38.54,-77.821 39.023,-77.864 Q39.506,-77.906 40.031,-77.465 Q41.08,-76.585 40.199,-75.535 Z M35.783,-51.869 L35.783,-35.928 L45.985,-28.508 Q47.093,-27.702 46.287,-26.594 Q45.481,-25.486 44.373,-26.292 L33.607,-34.122 Q33.042,-34.532 33.042,-35.23 L33.042,-51.869 Q33.042,-53.239 34.413,-53.239 Q35.783,-53.239 35.783,-51.869 Z"/>
  </g>
  <g id="Thin-M" transform="matrix(1 0 0 1 812.592 1126)">
   <path class="monochrome-0 multicolor-0:labelColor hierarchical-0:primary SFSymbolsPreviewWireframe" d="M51.34,-86.705 L44.288,-78.301 Q73.784,-78.967 84.342,-49.928 Q95.615,-18.919 68.581,-0.004 Q41.548,18.912 16.279,-2.305 Q-8.989,-23.521 4.964,-53.42 Q5.334,-54.213 5.915,-54.424 Q6.497,-54.636 7.29,-54.266 Q8.876,-53.526 8.135,-51.94 Q-4.682,-24.475 18.53,-4.985 Q41.741,14.505 66.575,-2.871 Q91.408,-20.248 81.052,-48.732 Q71.467,-75.096 44.889,-74.806 L52.975,-68.021 Q54.315,-66.896 53.19,-65.555 Q52.065,-64.215 50.725,-65.339 L39.617,-74.66 Q39.352,-74.744 39.156,-74.909 Q38.892,-75.13 38.752,-75.499 Q38.309,-76.152 38.632,-76.872 Q38.762,-77.547 39.339,-77.848 L48.659,-88.955 Q49.222,-89.625 49.838,-89.679 Q50.454,-89.733 51.125,-89.171 Q52.465,-88.046 51.34,-86.705 Z M45.7,-56.48 L45.7,-36.121 L58.729,-26.645 Q60.144,-25.616 59.115,-24.201 Q58.086,-22.785 56.67,-23.815 L42.92,-33.815 Q42.2,-34.339 42.2,-35.23 L42.2,-56.48 Q42.2,-58.23 43.95,-58.23 Q45.7,-58.23 45.7,-56.48 Z"/>
  </g>
  <g id="Thin-L" transform="matrix(1 0 0 1 799.882 1556)">
   <path class="monochrome-0 multicolor-0:labelColor hierarchical-0:primary SFSymbolsPreviewWireframe" d="M66.229,-101.633 L57.131,-90.791 Q95.182,-91.65 108.801,-54.191 Q123.344,-14.189 88.47,10.212 Q53.596,34.613 21,7.244 Q-11.596,-20.126 6.403,-58.695 Q6.881,-59.718 7.631,-59.991 Q8.381,-60.264 9.404,-59.786 Q11.449,-58.832 10.495,-56.786 Q-6.04,-21.356 23.903,3.786 Q53.846,28.928 85.882,6.512 Q117.917,-15.903 104.557,-52.648 Q92.193,-86.657 57.906,-86.283 L68.337,-77.53 Q70.067,-76.079 68.615,-74.349 Q67.164,-72.62 65.435,-74.071 L51.106,-86.095 Q50.765,-86.203 50.511,-86.415 Q50.171,-86.701 49.99,-87.176 Q49.419,-88.019 49.835,-88.948 Q50.003,-89.82 50.747,-90.207 L62.77,-104.535 Q63.496,-105.4 64.291,-105.469 Q65.086,-105.539 65.951,-104.813 Q67.68,-103.362 66.229,-101.633 Z M58.953,-62.642 L58.953,-36.38 L75.76,-24.156 Q77.586,-22.828 76.258,-21.002 Q74.931,-19.176 73.105,-20.504 L55.367,-33.404 Q54.438,-34.08 54.438,-35.23 L54.438,-62.642 Q54.438,-64.9 56.695,-64.9 Q58.953,-64.9 58.953,-62.642 Z"/>
  </g>
  <g id="Light-S" transform="matrix(1 0 0 1 1118.016 696)">
   <path class="monochrome-0 multicolor-0:labelColor hierarchical-0:primary SFSymbolsPreviewWireframe" d="M41.599,-75.032 L37.164,-69.746 Q59.421,-69.435 67.575,-47.006 Q76.608,-22.162 54.948,-7.006 Q33.288,8.149 13.043,-8.85 Q-7.202,-25.849 3.977,-49.804 Q4.432,-50.78 5.148,-51.04 Q5.863,-51.3 6.839,-50.845 Q8.79,-49.934 7.88,-47.983 Q-1.902,-27.022 15.812,-12.148 Q33.527,2.726 52.479,-10.535 Q71.432,-23.796 63.528,-45.535 Q56.62,-64.535 38.146,-65.395 L42.782,-61.505 Q44.432,-60.121 43.048,-58.471 Q42.356,-57.647 41.597,-57.58 Q40.839,-57.514 40.014,-58.206 L31.493,-65.357 Q30.729,-65.597 30.428,-66.388 Q29.883,-67.192 30.28,-68.078 Q30.372,-68.555 30.645,-68.88 Q30.847,-69.121 31.15,-69.279 L38.3,-77.8 Q38.992,-78.625 39.751,-78.691 Q40.509,-78.757 41.334,-78.065 Q42.983,-76.681 41.599,-75.032 Z M37.366,-51.869 L37.366,-36.326 L47.245,-29.141 Q48.987,-27.875 47.72,-26.134 Q46.454,-24.392 44.712,-25.659 L33.946,-33.489 Q33.059,-34.134 33.059,-35.23 L33.059,-51.869 Q33.059,-54.022 35.213,-54.022 Q37.366,-54.022 37.366,-51.869 Z"/>
  </g>
  <g id="Light-M" transform="matrix(1 0 0 1 1108.284 1126)">
   <path class="monochrome-0 multicolor-0:labelColor hierarchical-0:primary SFSymbolsPreviewWireframe" d="M53.128,-86.062 L47.463,-79.312 Q75.889,-78.915 86.303,-50.27 Q97.839,-18.54 70.176,0.816 Q42.514,20.171 16.658,-1.539 Q-9.198,-23.249 5.079,-53.843 Q5.661,-55.089 6.575,-55.421 Q7.488,-55.753 8.734,-55.172 Q11.226,-54.009 10.063,-51.517 Q-2.43,-24.747 20.194,-5.751 Q42.818,13.245 67.023,-3.691 Q91.228,-20.627 81.134,-48.391 Q72.312,-72.657 48.718,-73.755 L54.639,-68.787 Q56.746,-67.019 54.978,-64.912 Q54.094,-63.859 53.125,-63.774 Q52.157,-63.69 51.104,-64.573 L40.22,-73.706 Q39.245,-74.013 38.86,-75.023 Q38.165,-76.05 38.672,-77.182 Q38.789,-77.791 39.138,-78.206 Q39.396,-78.514 39.783,-78.715 L48.915,-89.598 Q49.799,-90.651 50.767,-90.736 Q51.736,-90.82 52.789,-89.937 Q54.896,-88.169 53.128,-86.062 Z M47.721,-56.48 L47.721,-36.63 L60.339,-27.454 Q62.563,-25.837 60.945,-23.613 Q59.328,-21.389 57.104,-23.006 L43.354,-33.006 Q42.221,-33.83 42.221,-35.23 L42.221,-56.48 Q42.221,-59.23 44.971,-59.23 Q47.721,-59.23 47.721,-56.48 Z"/>
  </g>
  <g id="Light-L" transform="matrix(1 0 0 1 1095.278 1556)">
   <path class="monochrome-0 multicolor-0:labelColor hierarchical-0:primary SFSymbolsPreviewWireframe" d="M68.535,-100.804 L61.228,-92.095 Q97.896,-91.584 111.331,-54.631 Q126.212,-13.7 90.528,11.269 Q54.843,36.238 21.488,8.232 Q-11.866,-19.774 6.552,-59.241 Q7.302,-60.848 8.481,-61.277 Q9.66,-61.705 11.267,-60.955 Q14.482,-59.455 12.982,-56.24 Q-3.134,-21.707 26.051,2.798 Q55.236,27.303 86.46,5.456 Q117.684,-16.392 104.663,-52.207 Q93.282,-83.51 62.846,-84.927 L70.484,-78.518 Q73.202,-76.238 70.921,-73.52 Q69.781,-72.161 68.532,-72.052 Q67.282,-71.943 65.924,-73.083 L51.884,-84.864 Q50.626,-85.261 50.13,-86.564 Q49.233,-87.888 49.887,-89.348 Q50.038,-90.133 50.487,-90.669 Q50.821,-91.066 51.32,-91.326 L63.1,-105.364 Q64.24,-106.723 65.49,-106.832 Q66.739,-106.942 68.098,-105.801 Q70.815,-103.521 68.535,-100.804 Z M61.56,-62.642 L61.56,-37.036 L77.837,-25.199 Q80.706,-23.112 78.619,-20.243 Q76.533,-17.374 73.664,-19.461 L55.926,-32.361 Q54.465,-33.424 54.465,-35.23 L54.465,-62.642 Q54.465,-66.19 58.013,-66.19 Q61.56,-66.19 61.56,-62.642 Z"/>
  </g>
  <g id="Regular-S" transform="matrix(1 0 0 1 1413.730 696)">
   <path class="monochrome-0 multicolor-0:labelColor hierarchical-0:primary SFSymbolsPreviewWireframe" d="M43.349,-74.403 L40.204,-70.654 Q61.477,-69.393 69.495,-47.341 Q78.784,-21.79 56.509,-6.204 Q34.234,9.382 13.414,-8.1 Q-7.407,-25.582 4.09,-50.218 Q4.752,-51.637 5.793,-52.015 Q6.834,-52.394 8.253,-51.731 Q9.672,-51.069 10.05,-50.029 Q10.429,-48.988 9.766,-47.569 Q0.302,-27.289 17.442,-12.897 Q34.581,1.494 52.918,-11.337 Q71.255,-24.167 63.608,-45.2 Q57.527,-61.925 42.185,-64.123 L44.411,-62.255 Q46.811,-60.241 44.797,-57.842 Q42.784,-55.443 40.385,-57.456 L32.083,-64.423 Q30.972,-64.773 30.534,-65.923 Q30.138,-66.508 30.084,-67.122 Q30.031,-67.737 30.319,-68.381 Q30.453,-69.075 30.85,-69.548 Q31.144,-69.899 31.584,-70.128 L38.55,-78.429 Q40.564,-80.828 42.963,-78.815 Q44.162,-77.808 44.259,-76.705 Q44.355,-75.602 43.349,-74.403 Z M39.344,-51.869 L39.344,-36.825 L48.821,-29.933 Q51.354,-28.091 49.512,-25.558 Q47.669,-23.025 45.137,-24.867 L34.37,-32.697 Q33.08,-33.635 33.08,-35.23 L33.08,-51.869 Q33.08,-55.001 36.212,-55.001 Q39.344,-55.001 39.344,-51.869 Z"/>
  </g>
  <g id="Regular-M" transform="matrix(1 0 0 1 1403.721 1126)">
   <path class="monochrome-0 multicolor-0:labelColor hierarchical-0:primary SFSymbolsPreviewWireframe" d="M55.362,-85.259 L51.346,-80.472 Q78.515,-78.861 88.755,-50.697 Q100.618,-18.066 72.17,1.84 Q43.722,21.745 17.131,-0.581 Q-9.46,-22.908 5.224,-54.372 Q6.069,-56.184 7.398,-56.667 Q8.728,-57.151 10.54,-56.305 Q12.352,-55.459 12.836,-54.13 Q13.319,-52.801 12.473,-50.988 Q0.386,-25.088 22.275,-6.708 Q44.165,11.671 67.584,-4.715 Q91.003,-21.101 81.236,-47.963 Q73.471,-69.323 53.876,-72.13 L56.72,-69.744 Q59.784,-67.173 57.212,-64.109 Q54.641,-61.045 51.577,-63.616 L40.974,-72.513 Q39.556,-72.96 38.996,-74.43 Q38.49,-75.176 38.422,-75.96 Q38.353,-76.745 38.722,-77.569 Q38.892,-78.455 39.399,-79.058 Q39.776,-79.507 40.338,-79.799 L49.234,-90.401 Q51.805,-93.465 54.87,-90.894 Q56.402,-89.609 56.525,-88.2 Q56.648,-86.791 55.362,-85.259 Z M50.248,-56.48 L50.248,-37.267 L62.351,-28.465 Q65.586,-26.112 63.233,-22.877 Q60.881,-19.642 57.646,-21.995 L43.896,-31.995 Q42.248,-33.193 42.248,-35.23 L42.248,-56.48 Q42.248,-60.48 46.248,-60.48 Q50.248,-60.48 50.248,-56.48 Z"/>
  </g>
  <g id="Regular-L" transform="matrix(1 0 0 1 1390.345 1556)">
   <path class="monochrome-0 multicolor-0:labelColor hierarchical-0:primary SFSymbolsPreviewWireframe" d="M71.418,-99.767 L66.236,-93.592 Q101.285,-91.514 114.494,-55.182 Q129.798,-13.088 93.099,12.59 Q56.401,38.268 22.099,9.467 Q-12.203,-19.335 6.738,-59.923 Q7.83,-62.261 9.544,-62.884 Q11.259,-63.507 13.596,-62.416 Q15.934,-61.325 16.558,-59.611 Q17.181,-57.896 16.09,-55.558 Q0.498,-22.146 28.735,1.563 Q56.973,25.273 87.183,4.134 Q117.393,-17.004 104.795,-51.656 Q94.777,-79.21 69.5,-82.831 L73.168,-79.753 Q77.121,-76.436 73.804,-72.484 Q70.487,-68.531 66.534,-71.848 L52.857,-83.325 Q51.027,-83.902 50.305,-85.797 Q49.653,-86.76 49.564,-87.772 Q49.476,-88.785 49.951,-89.847 Q50.171,-90.99 50.825,-91.769 Q51.311,-92.347 52.035,-92.724 L63.512,-106.401 Q66.829,-110.354 70.782,-107.037 Q72.758,-105.378 72.917,-103.561 Q73.076,-101.744 71.418,-99.767 Z M64.82,-62.642 L64.82,-37.858 L80.433,-26.503 Q84.606,-23.468 81.571,-19.295 Q78.536,-15.122 74.363,-18.157 L56.625,-31.057 Q54.5,-32.602 54.5,-35.23 L54.5,-62.642 Q54.5,-67.803 59.66,-67.803 Q64.82,-67.803 64.82,-62.642 Z"/>
  </g>
  <g id="Medium-S" transform="matrix(1 0 0 1 1709.942 696)">
   <path class="monochrome-0 multicolor-0:labelColor hierarchical-0:primary SFSymbolsPreviewWireframe" d="M44.224,-74.088 L41.697,-71.078 Q62.505,-69.375 70.455,-47.508 Q79.872,-21.605 57.29,-5.803 Q34.707,9.998 13.599,-7.725 Q-7.509,-25.449 4.147,-50.425 Q5.678,-53.706 8.96,-52.175 Q12.241,-50.644 10.71,-47.362 Q1.404,-27.422 18.256,-13.272 Q35.108,0.877 53.137,-11.738 Q71.167,-24.353 63.648,-45.033 Q58.037,-60.466 44.405,-63.318 L45.226,-62.629 Q48,-60.302 45.672,-57.528 Q44.508,-56.14 43.233,-56.029 Q41.957,-55.917 40.57,-57.081 L32.378,-63.956 Q31.83,-64.128 31.424,-64.47 Q30.878,-64.928 30.587,-65.691 Q30.129,-66.366 30.067,-67.077 Q30.005,-67.787 30.339,-68.533 Q30.608,-69.931 31.802,-70.552 L38.675,-78.744 Q39.839,-80.131 41.115,-80.242 Q42.39,-80.354 43.777,-79.19 Q46.551,-76.862 44.224,-74.088 Z M40.334,-51.869 L40.334,-37.074 L49.609,-30.329 Q51.073,-29.264 51.273,-27.999 Q51.472,-26.734 50.407,-25.27 Q48.277,-22.341 45.349,-24.471 L34.582,-32.301 Q33.091,-33.386 33.091,-35.23 L33.091,-51.869 Q33.091,-55.49 36.712,-55.49 Q40.334,-55.49 40.334,-51.869 Z"/>
  </g>
  <g id="Medium-M" transform="matrix(1 0 0 1 1699.795 1126)">
   <path class="monochrome-0 multicolor-0:labelColor hierarchical-0:primary SFSymbolsPreviewWireframe" d="M56.48,-84.857 L53.253,-81.012 Q79.827,-78.838 89.981,-50.911 Q102.008,-17.829 73.167,2.352 Q44.325,22.532 17.368,-0.103 Q-9.59,-22.738 5.296,-54.636 Q7.252,-58.827 11.443,-56.871 Q15.634,-54.915 13.678,-50.724 Q1.793,-25.258 23.316,-7.187 Q44.838,10.884 67.864,-5.227 Q90.89,-21.338 81.287,-47.75 Q74.121,-67.46 56.711,-71.103 L57.76,-70.223 Q61.303,-67.25 58.33,-63.707 Q56.843,-61.936 55.214,-61.793 Q53.585,-61.651 51.814,-63.137 L41.351,-71.917 Q40.651,-72.137 40.132,-72.573 Q39.435,-73.159 39.064,-74.133 Q38.479,-74.995 38.4,-75.903 Q38.321,-76.81 38.747,-77.762 Q39.091,-79.548 40.615,-80.341 L49.394,-90.803 Q50.88,-92.574 52.509,-92.717 Q54.138,-92.859 55.91,-91.373 Q59.453,-88.4 56.48,-84.857 Z M51.512,-56.48 L51.512,-37.585 L63.357,-28.97 Q65.227,-27.61 65.482,-25.995 Q65.737,-24.38 64.377,-22.51 Q61.657,-18.769 57.917,-21.49 L44.167,-31.49 Q42.262,-32.875 42.262,-35.23 L42.262,-56.48 Q42.262,-61.105 46.887,-61.105 Q51.512,-61.105 51.512,-56.48 Z"/>
  </g>
  <g id="Medium-L" transform="matrix(1 0 0 1 1686.234 1556)">
   <path class="monochrome-0 multicolor-0:labelColor hierarchical-0:primary SFSymbolsPreviewWireframe" d="M72.859,-99.249 L68.697,-94.289 Q102.977,-91.485 116.075,-55.458 Q131.591,-12.782 94.385,13.251 Q57.18,39.283 22.404,10.084 Q-12.372,-19.115 6.832,-60.264 Q9.355,-65.67 14.761,-63.147 Q20.168,-60.624 17.645,-55.217 Q2.313,-22.366 30.077,0.946 Q57.841,24.257 87.544,3.474 Q117.248,-17.31 104.861,-51.381 Q95.617,-76.807 73.158,-81.506 L74.51,-80.371 Q79.08,-76.536 75.245,-71.965 Q73.328,-69.68 71.226,-69.496 Q69.125,-69.313 66.84,-71.23 L53.343,-82.556 Q52.44,-82.84 51.771,-83.403 Q50.871,-84.158 50.392,-85.414 Q49.638,-86.527 49.536,-87.698 Q49.433,-88.869 49.984,-90.097 Q50.427,-92.4 52.393,-93.423 L63.718,-106.919 Q65.636,-109.204 67.737,-109.388 Q69.838,-109.572 72.124,-107.654 Q76.694,-103.819 72.859,-99.249 Z M66.45,-62.642 L66.45,-38.268 L81.731,-27.155 Q84.143,-25.401 84.472,-23.317 Q84.801,-21.233 83.047,-18.821 Q79.537,-13.996 74.712,-17.505 L56.975,-30.405 Q54.518,-32.192 54.518,-35.23 L54.518,-62.642 Q54.518,-68.609 60.484,-68.609 Q66.45,-68.609 66.45,-62.642 Z"/>
  </g>
  <g id="Semibold-S" transform="matrix(1 0 0 1 2006.808 696)">
   <path class="monochrome-0 multicolor-0:labelColor hierarchical-0:primary SFSymbolsPreviewWireframe" d="M44.354,-73.773 L42.222,-71.232 Q49.495,-70.099 56.026,-65.935 Q66.448,-59.29 70.671,-47.675 Q74.894,-36.06 71.173,-24.274 Q67.452,-12.488 57.326,-5.402 Q47.199,1.683 34.852,1.14 Q22.505,0.597 13.04,-7.351 Q3.575,-15.298 0.903,-27.365 Q-1.768,-39.432 3.459,-50.632 Q5.197,-54.357 8.922,-52.618 Q10.785,-51.749 11.282,-50.383 Q11.778,-49.017 10.909,-47.155 Q1.762,-27.555 18.327,-13.647 Q34.891,0.261 52.613,-12.139 Q70.334,-24.539 62.944,-44.866 Q57.838,-58.909 45.976,-62.354 Q48.124,-59.979 45.803,-57.213 Q43.16,-54.064 40.011,-56.706 L31.929,-63.489 Q30.471,-63.948 29.896,-65.458 Q28.856,-66.993 29.614,-68.684 Q29.789,-69.595 30.31,-70.215 Q30.697,-70.676 31.275,-70.976 L38.056,-79.058 Q39.378,-80.633 40.825,-80.759 Q42.273,-80.886 43.848,-79.565 Q46.997,-76.922 44.354,-73.773 Z M40.579,-51.869 L40.579,-37.323 L49.652,-30.725 Q52.977,-28.307 50.559,-24.982 Q48.141,-21.658 44.817,-24.075 L34.05,-31.905 Q32.357,-33.137 32.357,-35.23 L32.357,-51.869 Q32.357,-55.979 36.468,-55.979 Q40.579,-55.979 40.579,-51.869 Z"/>
  </g>
  <g id="Semibold-M" transform="matrix(1 0 0 1 1996.704 1126)">
   <path class="monochrome-0 multicolor-0:labelColor hierarchical-0:primary SFSymbolsPreviewWireframe" d="M56.647,-84.455 L53.923,-81.21 Q63.213,-79.762 71.553,-74.444 Q84.863,-65.958 90.256,-51.124 Q95.649,-36.29 90.898,-21.237 Q86.146,-6.185 73.213,2.864 Q60.28,11.913 44.511,11.219 Q28.742,10.526 16.654,0.376 Q4.565,-9.774 1.154,-25.185 Q-2.258,-40.597 4.417,-54.9 Q6.638,-59.658 11.395,-57.437 Q13.774,-56.327 14.408,-54.583 Q15.042,-52.839 13.932,-50.46 Q2.251,-25.428 23.406,-7.665 Q44.561,10.097 67.194,-5.739 Q89.827,-21.576 80.388,-47.536 Q73.868,-65.471 58.718,-69.872 Q61.461,-66.838 58.497,-63.305 Q55.122,-59.284 51.1,-62.658 L40.778,-71.32 Q38.916,-71.907 38.181,-73.836 Q36.854,-75.795 37.822,-77.956 Q38.045,-79.119 38.711,-79.911 Q39.205,-80.499 39.942,-80.883 L48.603,-91.205 Q50.291,-93.216 52.14,-93.377 Q53.989,-93.539 56,-91.852 Q60.021,-88.477 56.647,-84.455 Z M51.825,-56.48 L51.825,-37.903 L63.413,-29.476 Q67.659,-26.388 64.571,-22.142 Q61.483,-17.896 57.237,-20.984 L43.487,-30.984 Q41.325,-32.557 41.325,-35.23 L41.325,-56.48 Q41.325,-61.73 46.575,-61.73 Q51.825,-61.73 51.825,-56.48 Z"/>
  </g>
  <g id="Semibold-L" transform="matrix(1 0 0 1 1983.201 1556)">
   <path class="monochrome-0 multicolor-0:labelColor hierarchical-0:primary SFSymbolsPreviewWireframe" d="M73.074,-98.731 L69.561,-94.544 Q81.544,-92.677 92.304,-85.816 Q109.473,-74.87 116.43,-55.733 Q123.388,-36.597 117.258,-17.18 Q111.128,2.238 94.445,13.911 Q77.762,25.585 57.419,24.69 Q37.077,23.795 21.483,10.702 Q5.889,-2.392 1.488,-22.272 Q-2.912,-42.153 5.698,-60.605 Q8.563,-66.742 14.7,-63.878 Q17.768,-62.446 18.586,-60.195 Q19.405,-57.945 17.973,-54.876 Q2.903,-22.586 30.193,0.328 Q57.483,23.242 86.68,2.813 Q115.876,-17.616 103.701,-51.105 Q95.289,-74.241 75.746,-79.918 Q79.285,-76.004 75.461,-71.447 Q71.107,-66.259 65.919,-70.613 L52.603,-81.786 Q50.202,-82.544 49.254,-85.031 Q47.541,-87.559 48.79,-90.346 Q49.078,-91.847 49.937,-92.868 Q50.574,-93.627 51.525,-94.122 L62.698,-107.437 Q64.875,-110.031 67.26,-110.24 Q69.645,-110.449 72.239,-108.272 Q77.427,-103.919 73.074,-98.731 Z M66.854,-62.642 L66.854,-38.679 L81.802,-27.807 Q87.28,-23.824 83.296,-18.347 Q79.313,-12.869 73.836,-16.853 L56.098,-29.753 Q53.309,-31.781 53.309,-35.23 L53.309,-62.642 Q53.309,-69.415 60.082,-69.415 Q66.854,-69.415 66.854,-62.642 Z"/>
  </g>
  <g id="Bold-S" transform="matrix(1 0 0 1 2302.931 696)">
   <path class="monochrome-0 multicolor-0:labelColor hierarchical-0:primary SFSymbolsPreviewWireframe" d="M45.392,-73.396 L43.918,-71.639 Q50.751,-70.369 56.93,-66.43 Q67.519,-59.678 71.81,-47.876 Q76.101,-36.073 72.321,-24.097 Q68.54,-12.121 58.251,-4.921 Q47.961,2.279 35.414,1.727 Q22.868,1.175 13.25,-6.901 Q3.632,-14.976 0.918,-27.238 Q-1.796,-39.5 3.515,-50.88 Q4.508,-53.009 6.069,-53.576 Q7.63,-54.144 9.759,-53.151 Q11.887,-52.157 12.455,-50.596 Q13.022,-49.035 12.029,-46.907 Q3.073,-27.715 19.292,-14.097 Q35.511,-0.478 52.864,-12.62 Q70.216,-24.761 62.98,-44.665 Q58.334,-57.444 47.973,-61.261 Q48.8,-59.17 46.841,-56.835 Q45.331,-55.036 43.676,-54.891 Q42.021,-54.747 40.222,-56.257 L32.271,-62.928 Q30.605,-63.454 29.947,-65.179 Q29.354,-66.056 29.273,-66.977 Q29.193,-67.899 29.626,-68.866 Q29.975,-70.68 31.523,-71.486 L38.194,-79.436 Q41.214,-83.035 44.813,-80.015 Q46.613,-78.505 46.757,-76.85 Q46.902,-75.195 45.392,-73.396 Z M41.754,-51.869 L41.754,-37.622 L50.586,-31.199 Q52.485,-29.818 52.744,-28.177 Q53.003,-26.536 51.622,-24.637 Q48.859,-20.837 45.059,-23.601 L34.293,-31.431 Q32.358,-32.838 32.358,-35.23 L32.358,-51.869 Q32.358,-56.567 37.056,-56.567 Q41.754,-56.567 41.754,-51.869 Z"/>
  </g>
  <g id="Bold-M" transform="matrix(1 0 0 1 2292.664 1126)">
   <path class="monochrome-0 multicolor-0:labelColor hierarchical-0:primary SFSymbolsPreviewWireframe" d="M57.972,-83.973 L56.089,-81.73 Q64.816,-80.108 72.708,-75.077 Q86.232,-66.454 91.712,-51.38 Q97.192,-36.307 92.364,-21.012 Q87.536,-5.717 74.394,3.478 Q61.253,12.674 45.229,11.969 Q29.206,11.264 16.922,0.95 Q4.639,-9.363 1.172,-25.023 Q-2.294,-40.683 4.489,-55.217 Q5.757,-57.936 7.751,-58.661 Q9.745,-59.386 12.463,-58.117 Q15.182,-56.848 15.907,-54.855 Q16.632,-52.861 15.363,-50.143 Q3.924,-25.632 24.639,-8.24 Q45.353,9.153 67.514,-6.354 Q89.676,-21.86 80.434,-47.28 Q74.5,-63.601 61.269,-68.475 Q62.324,-65.805 59.822,-62.823 Q57.894,-60.525 55.78,-60.34 Q53.667,-60.155 51.369,-62.084 L41.215,-70.605 Q39.087,-71.276 38.247,-73.479 Q37.489,-74.599 37.386,-75.775 Q37.283,-76.953 37.836,-78.188 Q38.282,-80.504 40.26,-81.533 L48.78,-91.687 Q52.636,-96.283 57.233,-92.426 Q59.531,-90.498 59.716,-88.385 Q59.9,-86.271 57.972,-83.973 Z M53.326,-56.48 L53.326,-38.285 L64.605,-30.082 Q67.031,-28.318 67.362,-26.223 Q67.693,-24.127 65.928,-21.701 Q62.399,-16.849 57.547,-20.378 L43.797,-30.378 Q41.326,-32.175 41.326,-35.23 L41.326,-56.48 Q41.326,-62.48 47.326,-62.48 Q53.326,-62.48 53.326,-56.48 Z"/>
  </g>
  <g id="Bold-L" transform="matrix(1 0 0 1 2278.944 1556)">
   <path class="monochrome-0 multicolor-0:labelColor hierarchical-0:primary SFSymbolsPreviewWireframe" d="M74.784,-98.109 L72.355,-95.214 Q83.613,-93.123 93.793,-86.632 Q111.239,-75.509 118.308,-56.064 Q125.378,-36.619 119.149,-16.888 Q112.921,2.842 95.968,14.704 Q79.016,26.566 58.346,25.656 Q37.675,24.747 21.83,11.442 Q5.984,-1.862 1.512,-22.063 Q-2.959,-42.265 5.79,-61.014 Q7.427,-64.521 9.999,-65.456 Q12.571,-66.391 16.077,-64.754 Q19.584,-63.118 20.52,-60.546 Q21.455,-57.974 19.818,-54.467 Q5.063,-22.849 31.784,-0.413 Q58.505,22.024 87.094,2.02 Q115.682,-17.983 103.76,-50.775 Q96.105,-71.828 79.036,-78.116 Q80.398,-74.672 77.17,-70.825 Q74.683,-67.861 71.957,-67.622 Q69.23,-67.384 66.266,-69.871 L53.167,-80.863 Q50.423,-81.729 49.339,-84.572 Q48.361,-86.016 48.228,-87.534 Q48.095,-89.053 48.809,-90.646 Q49.384,-93.634 51.935,-94.961 L62.926,-108.059 Q67.901,-113.988 73.83,-109.013 Q76.795,-106.525 77.033,-103.799 Q77.271,-101.073 74.784,-98.109 Z M68.79,-62.642 L68.79,-39.171 L83.34,-28.59 Q86.47,-26.313 86.897,-23.61 Q87.324,-20.907 85.047,-17.778 Q80.495,-11.518 74.235,-16.07 L56.498,-28.97 Q53.31,-31.289 53.31,-35.23 L53.31,-62.642 Q53.31,-70.382 61.05,-70.382 Q68.79,-70.382 68.79,-62.642 Z"/>
  </g>
  <g id="Heavy-S" transform="matrix(1 0 0 1 2599.054 696)">
   <path class="monochrome-0 multicolor-0:labelColor hierarchical-0:primary SFSymbolsPreviewWireframe" d="M46.43,-73.018 L45.593,-72.021 Q52,-70.644 57.834,-66.925 Q68.591,-60.066 72.95,-48.076 Q77.309,-36.086 73.469,-23.92 Q69.628,-11.754 59.175,-4.44 Q48.722,2.874 35.977,2.313 Q23.231,1.753 13.461,-6.451 Q3.69,-14.655 0.933,-27.111 Q-1.825,-39.568 3.57,-51.128 Q4.688,-53.523 6.444,-54.162 Q8.2,-54.8 10.595,-53.683 Q15.384,-51.448 13.149,-46.658 Q4.384,-27.875 20.258,-14.546 Q36.132,-1.218 53.115,-13.101 Q70.098,-24.984 63.016,-44.465 Q58.717,-56.289 49.42,-60.273 Q49.545,-58.444 47.878,-56.458 Q46.18,-54.434 44.318,-54.271 Q43.407,-54.191 42.456,-54.558 Q42.929,-53.45 42.929,-51.869 L42.929,-37.921 L51.519,-31.674 Q55.793,-28.566 52.685,-24.291 Q49.576,-20.017 45.302,-23.126 L34.535,-30.956 Q32.359,-32.539 32.359,-35.23 L32.359,-51.869 Q32.359,-57.154 37.644,-57.154 Q38.334,-57.154 38.934,-57.064 L32.613,-62.368 Q30.739,-62.959 29.999,-64.9 Q28.663,-66.873 29.637,-69.048 Q30.03,-71.088 31.772,-71.995 L38.332,-79.813 Q40.031,-81.838 41.893,-82 Q43.754,-82.163 45.779,-80.464 Q49.827,-77.067 46.43,-73.018 Z"/>
  </g>
  <g id="Heavy-M" transform="matrix(1 0 0 1 2588.624 1126)">
   <path class="monochrome-0 multicolor-0:labelColor hierarchical-0:primary SFSymbolsPreviewWireframe" d="M59.297,-83.491 L58.229,-82.217 Q66.412,-80.459 73.862,-75.709 Q87.6,-66.95 93.168,-51.637 Q98.735,-36.324 93.83,-20.786 Q88.925,-5.248 75.575,4.093 Q62.225,13.434 45.947,12.718 Q29.669,12.002 17.191,1.525 Q4.713,-8.953 1.191,-24.861 Q-2.331,-40.77 4.56,-55.535 Q5.987,-58.593 8.23,-59.408 Q10.473,-60.224 13.531,-58.797 Q19.648,-55.942 16.793,-49.825 Q5.598,-25.837 25.872,-8.814 Q46.145,8.208 67.835,-6.968 Q89.525,-22.145 80.48,-47.024 Q74.99,-62.125 63.116,-67.213 Q63.276,-64.877 61.147,-62.341 Q58.978,-59.756 56.601,-59.548 Q55.437,-59.446 54.223,-59.914 Q54.827,-58.499 54.827,-56.48 L54.827,-38.667 L65.797,-30.689 Q71.256,-26.719 67.286,-21.26 Q63.315,-15.801 57.856,-19.771 L44.106,-29.771 Q41.327,-31.793 41.327,-35.23 L41.327,-56.48 Q41.327,-63.23 48.077,-63.23 Q48.958,-63.23 49.724,-63.115 L41.652,-69.889 Q39.258,-70.644 38.313,-73.123 Q36.607,-75.643 37.851,-78.42 Q38.352,-81.026 40.577,-82.184 L48.956,-92.169 Q51.125,-94.754 53.503,-94.962 Q55.88,-95.17 58.466,-93.001 Q63.636,-88.662 59.297,-83.491 Z"/>
  </g>
  <g id="Heavy-L" transform="matrix(1 0 0 1 2574.686 1556)">
   <path class="monochrome-0 multicolor-0:labelColor hierarchical-0:primary SFSymbolsPreviewWireframe" d="M76.494,-97.487 L75.115,-95.844 Q85.671,-93.575 95.281,-87.448 Q113.004,-76.148 120.186,-56.395 Q127.368,-36.641 121.041,-16.597 Q114.713,3.447 97.492,15.497 Q80.27,27.547 59.272,26.623 Q38.273,25.699 22.176,12.183 Q6.079,-1.332 1.537,-21.854 Q-3.006,-42.376 5.882,-61.423 Q7.723,-65.368 10.617,-66.42 Q13.51,-67.472 17.455,-65.631 Q25.346,-61.949 21.663,-54.058 Q7.222,-23.113 33.375,-1.154 Q59.528,20.805 87.508,1.228 Q115.488,-18.35 103.819,-50.444 Q96.737,-69.924 81.42,-76.489 Q81.626,-73.475 78.88,-70.203 Q76.082,-66.868 73.015,-66.6 Q71.513,-66.469 69.947,-67.072 Q70.726,-65.247 70.726,-62.642 L70.726,-39.664 L84.878,-29.372 Q91.92,-24.251 86.798,-17.208 Q81.677,-10.166 74.635,-15.288 L56.897,-28.188 Q53.311,-30.796 53.311,-35.23 L53.311,-62.642 Q53.311,-71.35 62.019,-71.35 Q63.156,-71.35 64.144,-71.202 L53.731,-79.94 Q50.643,-80.914 49.424,-84.112 Q47.223,-87.362 48.828,-90.946 Q49.474,-94.307 52.345,-95.801 L63.153,-108.681 Q65.952,-112.016 69.019,-112.285 Q72.085,-112.553 75.421,-109.754 Q82.091,-104.157 76.494,-97.487 Z"/>
  </g>
  <g id="Black-S" transform="matrix(1 0 0 1 2895.177 696)">
   <path class="monochrome-0 multicolor-0:labelColor hierarchical-0:primary SFSymbolsPreviewWireframe" d="M47.468,-72.641 L47.249,-72.38 Q53.244,-70.923 58.737,-67.42 Q69.663,-60.454 74.09,-48.277 Q78.517,-36.1 74.617,-23.743 Q70.716,-11.387 60.1,-3.959 Q49.483,3.469 36.539,2.9 Q23.594,2.331 13.671,-6.001 Q3.748,-14.333 0.947,-26.984 Q-1.853,-39.635 3.626,-51.377 Q4.868,-54.038 6.819,-54.747 Q8.77,-55.457 11.431,-54.215 Q14.092,-52.973 14.801,-51.022 Q15.511,-49.071 14.269,-46.41 Q5.694,-28.035 21.223,-14.996 Q36.752,-1.957 53.366,-13.582 Q69.98,-25.207 63.052,-44.264 Q59.041,-55.295 50.584,-59.351 Q50.331,-57.767 48.916,-56.08 Q46.567,-53.281 43.937,-53.686 Q44.104,-52.861 44.104,-51.869 L44.104,-38.22 L52.452,-32.149 Q57.202,-28.695 53.748,-23.946 Q50.293,-19.197 45.544,-22.651 L34.778,-30.481 Q32.359,-32.24 32.359,-35.23 L32.359,-51.869 Q32.359,-57.527 37.811,-57.733 L32.955,-61.808 Q32.067,-62.088 31.408,-62.641 Q30.522,-63.385 30.051,-64.621 Q29.309,-65.717 29.208,-66.869 Q29.107,-68.021 29.649,-69.23 Q30.085,-71.497 32.021,-72.504 L38.471,-80.191 Q40.358,-82.44 42.426,-82.621 Q44.495,-82.802 46.744,-80.914 Q51.242,-77.139 47.468,-72.641 Z"/>
  </g>
  <g id="Black-M" transform="matrix(1 0 0 1 2884.584 1126)">
   <path class="monochrome-0 multicolor-0:labelColor hierarchical-0:primary SFSymbolsPreviewWireframe" d="M60.623,-83.009 L60.343,-82.676 Q68,-80.815 75.016,-76.341 Q88.969,-67.445 94.623,-51.893 Q100.278,-36.341 95.296,-20.56 Q90.314,-4.78 76.756,4.707 Q63.197,14.195 46.665,13.467 Q30.133,12.74 17.46,2.099 Q4.786,-8.542 1.21,-24.699 Q-2.367,-40.856 4.631,-55.852 Q6.217,-59.25 8.709,-60.156 Q11.201,-61.062 14.599,-59.476 Q17.997,-57.89 18.904,-55.398 Q19.81,-52.906 18.224,-49.508 Q7.272,-26.041 27.105,-9.389 Q46.938,7.264 68.156,-7.583 Q89.375,-22.429 80.526,-46.768 Q75.404,-60.856 64.602,-66.036 Q64.28,-64.012 62.473,-61.859 Q59.472,-58.283 56.113,-58.801 Q56.328,-57.747 56.328,-56.48 L56.328,-39.049 L66.989,-31.296 Q73.054,-26.884 68.643,-20.819 Q64.232,-14.753 58.166,-19.164 L44.416,-29.164 Q41.328,-31.411 41.328,-35.23 L41.328,-56.48 Q41.328,-63.706 48.289,-63.97 L42.089,-69.173 Q40.954,-69.531 40.112,-70.238 Q38.981,-71.188 38.379,-72.767 Q37.431,-74.166 37.303,-75.637 Q37.174,-77.109 37.866,-78.653 Q38.423,-81.548 40.895,-82.834 L49.132,-92.651 Q51.543,-95.524 54.184,-95.755 Q56.826,-95.986 59.699,-93.575 Q65.444,-88.754 60.623,-83.009 Z"/>
  </g>
  <g id="Black-L" transform="matrix(1 0 0 1 2870.428 1556)">
   <path class="monochrome-0 multicolor-0:labelColor hierarchical-0:primary SFSymbolsPreviewWireframe" d="M78.203,-96.865 L77.843,-96.435 Q87.719,-94.034 96.77,-88.264 Q114.77,-76.787 122.064,-56.725 Q129.358,-36.663 122.932,-16.306 Q116.506,4.051 99.015,16.289 Q81.524,28.528 60.198,27.589 Q38.871,26.651 22.523,12.924 Q6.174,-0.803 1.561,-21.645 Q-3.053,-42.488 5.974,-61.832 Q8.02,-66.216 11.235,-67.385 Q14.449,-68.554 18.833,-66.508 Q23.217,-64.462 24.386,-61.247 Q25.555,-58.033 23.509,-53.649 Q9.381,-23.376 34.966,-1.895 Q60.55,19.587 87.922,0.435 Q115.293,-18.717 103.879,-50.113 Q97.271,-68.287 83.337,-74.97 Q82.921,-72.359 80.59,-69.581 Q76.719,-64.968 72.386,-65.636 Q72.663,-64.277 72.663,-62.642 L72.663,-40.157 L86.416,-30.155 Q94.24,-24.464 88.55,-16.639 Q82.859,-8.815 75.034,-14.505 L57.297,-27.405 Q53.313,-30.303 53.313,-35.23 L53.313,-62.642 Q53.313,-71.964 62.293,-72.305 L54.294,-79.017 Q52.83,-79.478 51.744,-80.39 Q50.286,-81.615 49.509,-83.652 Q48.287,-85.457 48.121,-87.355 Q47.955,-89.254 48.847,-91.245 Q49.565,-94.98 52.754,-96.64 L63.381,-109.303 Q66.49,-113.009 69.898,-113.307 Q73.305,-113.605 77.011,-110.495 Q84.422,-104.276 78.203,-96.865 Z"/>
  </g>
 </g>
</svg>
