<?xml version="1.0" encoding="UTF-8"?>
<!DOCTYPE svg PUBLIC "-//W3C//DTD SVG 1.1//EN" "http://www.w3.org/Graphics/SVG/1.1/DTD/svg11.dtd">
<svg version="1.1" xmlns="http://www.w3.org/2000/svg" xmlns:xlink="http://www.w3.org/1999/xlink" viewBox="0 0 3300 2200">
 <!--glyph: "fotu.slider.printerLamp.high", generated by tools/build-glyphs.py. Fotufilm glyphs, Copyright 2026 MUAStudio Inc., CC BY-SA 4.0 (https://creativecommons.org/licenses/by-sa/4.0/), https://fotufilm.com, see licenses/GLYPHS.txt-->
 <style>.monochrome-0 {opacity:0.900;}
.multicolor-0:labelColor {opacity:0.900;}
.hierarchical-0:primary {}
.monochrome-1 {opacity:0.420;}
.multicolor-1:labelColor {opacity:0.420;}
.hierarchical-1:secondary {}
.SFSymbolsPreviewWireframe {fill:none;opacity:1.0;stroke:black;stroke-width:0.5}
</style>
 <g id="Notes">
  <rect height="2200" id="artboard" style="fill:white;opacity:1" width="3300" x="0" y="0"/>
  <text id="template-version" style="stroke:none;fill:black;font-family:sans-serif;font-size:13;text-anchor:end;" transform="matrix(1 0 0 1 3036 1933)">Template v.6.0</text>
  <text id="descriptive-name" style="stroke:none;fill:black;font-family:sans-serif;font-size:13;text-anchor:end;" transform="matrix(1 0 0 1 3036 1969)">fotu.slider.printerLamp.high</text>
 </g>
 <g id="Guides">
  <line id="Baseline-S" style="fill:none;stroke:#27AAE1;opacity:1;stroke-width:0.5;" x1="263" x2="3036" y1="696" y2="696"/>
  <line id="Capline-S" style="fill:none;stroke:#27AAE1;opacity:1;stroke-width:0.5;" x1="263" x2="3036" y1="625.54" y2="625.54"/>
  <line id="Baseline-M" style="fill:none;stroke:#27AAE1;opacity:1;stroke-width:0.5;" x1="263" x2="3036" y1="1126" y2="1126"/>
  <line id="Capline-M" style="fill:none;stroke:#27AAE1;opacity:1;stroke-width:0.5;" x1="263" x2="3036" y1="1055.54" y2="1055.54"/>
  <line id="Baseline-L" style="fill:none;stroke:#27AAE1;opacity:1;stroke-width:0.5;" x1="263" x2="3036" y1="1556" y2="1556"/>
  <line id="Capline-L" style="fill:none;stroke:#27AAE1;opacity:1;stroke-width:0.5;" x1="263" x2="3036" y1="1485.54" y2="1485.54"/>
  <line id="left-margin-Ultralight-S" style="fill:none;stroke:#00AEEF;stroke-width:0.5;opacity:1.0;" x1="536.219" x2="536.219" y1="601.0" y2="721.0"/>
  <line id="right-margin-Ultralight-S" style="fill:none;stroke:#FF3B30;stroke-width:0.5;opacity:1.0;" x1="583.203" x2="583.203" y1="601.0" y2="721.0"/>
  <line id="left-margin-Ultralight-M" style="fill:none;stroke:#00AEEF;stroke-width:0.5;opacity:1.0;" x1="529.709" x2="529.709" y1="1031.0" y2="1151.0"/>
  <line id="right-margin-Ultralight-M" style="fill:none;stroke:#FF3B30;stroke-width:0.5;opacity:1.0;" x1="589.713" x2="589.713" y1="1031.0" y2="1151.0"/>
  <line id="left-margin-Ultralight-L" style="fill:none;stroke:#00AEEF;stroke-width:0.5;opacity:1.0;" x1="521.009" x2="521.009" y1="1461.0" y2="1581.0"/>
  <line id="right-margin-Ultralight-L" style="fill:none;stroke:#FF3B30;stroke-width:0.5;opacity:1.0;" x1="598.413" x2="598.413" y1="1461.0" y2="1581.0"/>
  <line id="left-margin-Thin-S" style="fill:none;stroke:#00AEEF;stroke-width:0.5;opacity:1.0;" x1="832.930" x2="832.930" y1="601.0" y2="721.0"/>
  <line id="right-margin-Thin-S" style="fill:none;stroke:#FF3B30;stroke-width:0.5;opacity:1.0;" x1="879.914" x2="879.914" y1="601.0" y2="721.0"/>
  <line id="left-margin-Thin-M" style="fill:none;stroke:#00AEEF;stroke-width:0.5;opacity:1.0;" x1="826.420" x2="826.420" y1="1031.0" y2="1151.0"/>
  <line id="right-margin-Thin-M" style="fill:none;stroke:#FF3B30;stroke-width:0.5;opacity:1.0;" x1="886.424" x2="886.424" y1="1031.0" y2="1151.0"/>
  <line id="left-margin-Thin-L" style="fill:none;stroke:#00AEEF;stroke-width:0.5;opacity:1.0;" x1="817.720" x2="817.720" y1="1461.0" y2="1581.0"/>
  <line id="right-margin-Thin-L" style="fill:none;stroke:#FF3B30;stroke-width:0.5;opacity:1.0;" x1="895.124" x2="895.124" y1="1461.0" y2="1581.0"/>
  <line id="left-margin-Light-S" style="fill:none;stroke:#00AEEF;stroke-width:0.5;opacity:1.0;" x1="1129.641" x2="1129.641" y1="601.0" y2="721.0"/>
  <line id="right-margin-Light-S" style="fill:none;stroke:#FF3B30;stroke-width:0.5;opacity:1.0;" x1="1176.625" x2="1176.625" y1="601.0" y2="721.0"/>
  <line id="left-margin-Light-M" style="fill:none;stroke:#00AEEF;stroke-width:0.5;opacity:1.0;" x1="1123.131" x2="1123.131" y1="1031.0" y2="1151.0"/>
  <line id="right-margin-Light-M" style="fill:none;stroke:#FF3B30;stroke-width:0.5;opacity:1.0;" x1="1183.135" x2="1183.135" y1="1031.0" y2="1151.0"/>
  <line id="left-margin-Light-L" style="fill:none;stroke:#00AEEF;stroke-width:0.5;opacity:1.0;" x1="1114.431" x2="1114.431" y1="1461.0" y2="1581.0"/>
  <line id="right-margin-Light-L" style="fill:none;stroke:#FF3B30;stroke-width:0.5;opacity:1.0;" x1="1191.835" x2="1191.835" y1="1461.0" y2="1581.0"/>
  <line id="left-margin-Regular-S" style="fill:none;stroke:#00AEEF;stroke-width:0.5;opacity:1.0;" x1="1426.352" x2="1426.352" y1="601.0" y2="721.0"/>
  <line id="right-margin-Regular-S" style="fill:none;stroke:#FF3B30;stroke-width:0.5;opacity:1.0;" x1="1473.336" x2="1473.336" y1="601.0" y2="721.0"/>
  <line id="left-margin-Regular-M" style="fill:none;stroke:#00AEEF;stroke-width:0.5;opacity:1.0;" x1="1419.842" x2="1419.842" y1="1031.0" y2="1151.0"/>
  <line id="right-margin-Regular-M" style="fill:none;stroke:#FF3B30;stroke-width:0.5;opacity:1.0;" x1="1479.846" x2="1479.846" y1="1031.0" y2="1151.0"/>
  <line id="left-margin-Regular-L" style="fill:none;stroke:#00AEEF;stroke-width:0.5;opacity:1.0;" x1="1411.142" x2="1411.142" y1="1461.0" y2="1581.0"/>
  <line id="right-margin-Regular-L" style="fill:none;stroke:#FF3B30;stroke-width:0.5;opacity:1.0;" x1="1488.546" x2="1488.546" y1="1461.0" y2="1581.0"/>
  <line id="left-margin-Medium-S" style="fill:none;stroke:#00AEEF;stroke-width:0.5;opacity:1.0;" x1="1723.063" x2="1723.063" y1="601.0" y2="721.0"/>
  <line id="right-margin-Medium-S" style="fill:none;stroke:#FF3B30;stroke-width:0.5;opacity:1.0;" x1="1770.047" x2="1770.047" y1="601.0" y2="721.0"/>
  <line id="left-margin-Medium-M" style="fill:none;stroke:#00AEEF;stroke-width:0.5;opacity:1.0;" x1="1716.553" x2="1716.553" y1="1031.0" y2="1151.0"/>
  <line id="right-margin-Medium-M" style="fill:none;stroke:#FF3B30;stroke-width:0.5;opacity:1.0;" x1="1776.557" x2="1776.557" y1="1031.0" y2="1151.0"/>
  <line id="left-margin-Medium-L" style="fill:none;stroke:#00AEEF;stroke-width:0.5;opacity:1.0;" x1="1707.853" x2="1707.853" y1="1461.0" y2="1581.0"/>
  <line id="right-margin-Medium-L" style="fill:none;stroke:#FF3B30;stroke-width:0.5;opacity:1.0;" x1="1785.257" x2="1785.257" y1="1461.0" y2="1581.0"/>
  <line id="left-margin-Semibold-S" style="fill:none;stroke:#00AEEF;stroke-width:0.5;opacity:1.0;" x1="2019.774" x2="2019.774" y1="601.0" y2="721.0"/>
  <line id="right-margin-Semibold-S" style="fill:none;stroke:#FF3B30;stroke-width:0.5;opacity:1.0;" x1="2066.758" x2="2066.758" y1="601.0" y2="721.0"/>
  <line id="left-margin-Semibold-M" style="fill:none;stroke:#00AEEF;stroke-width:0.5;opacity:1.0;" x1="2013.264" x2="2013.264" y1="1031.0" y2="1151.0"/>
  <line id="right-margin-Semibold-M" style="fill:none;stroke:#FF3B30;stroke-width:0.5;opacity:1.0;" x1="2073.268" x2="2073.268" y1="1031.0" y2="1151.0"/>
  <line id="left-margin-Semibold-L" style="fill:none;stroke:#00AEEF;stroke-width:0.5;opacity:1.0;" x1="2004.564" x2="2004.564" y1="1461.0" y2="1581.0"/>
  <line id="right-margin-Semibold-L" style="fill:none;stroke:#FF3B30;stroke-width:0.5;opacity:1.0;" x1="2081.968" x2="2081.968" y1="1461.0" y2="1581.0"/>
  <line id="left-margin-Bold-S" style="fill:none;stroke:#00AEEF;stroke-width:0.5;opacity:1.0;" x1="2316.485" x2="2316.485" y1="601.0" y2="721.0"/>
  <line id="right-margin-Bold-S" style="fill:none;stroke:#FF3B30;stroke-width:0.5;opacity:1.0;" x1="2363.469" x2="2363.469" y1="601.0" y2="721.0"/>
  <line id="left-margin-Bold-M" style="fill:none;stroke:#00AEEF;stroke-width:0.5;opacity:1.0;" x1="2309.975" x2="2309.975" y1="1031.0" y2="1151.0"/>
  <line id="right-margin-Bold-M" style="fill:none;stroke:#FF3B30;stroke-width:0.5;opacity:1.0;" x1="2369.979" x2="2369.979" y1="1031.0" y2="1151.0"/>
  <line id="left-margin-Bold-L" style="fill:none;stroke:#00AEEF;stroke-width:0.5;opacity:1.0;" x1="2301.275" x2="2301.275" y1="1461.0" y2="1581.0"/>
  <line id="right-margin-Bold-L" style="fill:none;stroke:#FF3B30;stroke-width:0.5;opacity:1.0;" x1="2378.679" x2="2378.679" y1="1461.0" y2="1581.0"/>
  <line id="left-margin-Heavy-S" style="fill:none;stroke:#00AEEF;stroke-width:0.5;opacity:1.0;" x1="2613.196" x2="2613.196" y1="601.0" y2="721.0"/>
  <line id="right-margin-Heavy-S" style="fill:none;stroke:#FF3B30;stroke-width:0.5;opacity:1.0;" x1="2660.180" x2="2660.180" y1="601.0" y2="721.0"/>
  <line id="left-margin-Heavy-M" style="fill:none;stroke:#00AEEF;stroke-width:0.5;opacity:1.0;" x1="2606.686" x2="2606.686" y1="1031.0" y2="1151.0"/>
  <line id="right-margin-Heavy-M" style="fill:none;stroke:#FF3B30;stroke-width:0.5;opacity:1.0;" x1="2666.690" x2="2666.690" y1="1031.0" y2="1151.0"/>
  <line id="left-margin-Heavy-L" style="fill:none;stroke:#00AEEF;stroke-width:0.5;opacity:1.0;" x1="2597.986" x2="2597.986" y1="1461.0" y2="1581.0"/>
  <line id="right-margin-Heavy-L" style="fill:none;stroke:#FF3B30;stroke-width:0.5;opacity:1.0;" x1="2675.390" x2="2675.390" y1="1461.0" y2="1581.0"/>
  <line id="left-margin-Black-S" style="fill:none;stroke:#00AEEF;stroke-width:0.5;opacity:1.0;" x1="2909.907" x2="2909.907" y1="601.0" y2="721.0"/>
  <line id="right-margin-Black-S" style="fill:none;stroke:#FF3B30;stroke-width:0.5;opacity:1.0;" x1="2956.891" x2="2956.891" y1="601.0" y2="721.0"/>
  <line id="left-margin-Black-M" style="fill:none;stroke:#00AEEF;stroke-width:0.5;opacity:1.0;" x1="2903.397" x2="2903.397" y1="1031.0" y2="1151.0"/>
  <line id="right-margin-Black-M" style="fill:none;stroke:#FF3B30;stroke-width:0.5;opacity:1.0;" x1="2963.401" x2="2963.401" y1="1031.0" y2="1151.0"/>
  <line id="left-margin-Black-L" style="fill:none;stroke:#00AEEF;stroke-width:0.5;opacity:1.0;" x1="2894.697" x2="2894.697" y1="1461.0" y2="1581.0"/>
  <line id="right-margin-Black-L" style="fill:none;stroke:#FF3B30;stroke-width:0.5;opacity:1.0;" x1="2972.101" x2="2972.101" y1="1461.0" y2="1581.0"/>
 </g>
 <g id="Symbols">
  <g id="Ultralight-S" transform="matrix(1 0 0 1 536.219 696)">
   <path class="monochrome-0 multicolor-0:labelColor hierarchical-0:primary SFSymbolsPreviewWireframe" d="M23.492,-68.507 C33.602,-68.507 42.579,-62.038 45.776,-52.446 C48.973,-42.854 45.674,-32.292 37.586,-26.225 C34.845,-23.877 33.279,-21.136 33.279,-17.613 L33.279,-15.655 L13.704,-15.655 L13.704,-17.613 C13.704,-21.136 12.138,-23.877 9.398,-26.225 C1.309,-32.292 -1.99,-42.854 1.207,-52.446 C4.404,-62.038 13.381,-68.507 23.492,-68.507 Z"/>
   <path class="monochrome-1 multicolor-1:labelColor hierarchical-1:secondary SFSymbolsPreviewWireframe" d="M14.879,-6.748 L32.105,-6.748 Q32.985,-6.748 32.985,-5.868 Q32.985,-4.987 32.105,-4.987 L14.879,-4.987 Q13.998,-4.987 13.998,-5.868 Q13.998,-6.748 14.879,-6.748 Z"/>
  </g>
  <g id="Ultralight-M" transform="matrix(1 0 0 1 529.709 1126)">
   <path class="monochrome-0 multicolor-0:labelColor hierarchical-0:primary SFSymbolsPreviewWireframe" d="M30.002,-77.73 C42.915,-77.73 54.379,-69.467 58.462,-57.217 C62.546,-44.967 58.332,-31.478 48.002,-23.73 C44.502,-20.73 42.502,-17.23 42.502,-12.73 L42.502,-10.23 L17.502,-10.23 L17.502,-12.73 C17.502,-17.23 15.502,-20.73 12.002,-23.73 C1.672,-31.478 -2.542,-44.967 1.541,-57.217 C5.625,-69.467 17.089,-77.73 30.002,-77.73 Z"/>
   <path class="monochrome-1 multicolor-1:labelColor hierarchical-1:secondary SFSymbolsPreviewWireframe" d="M19.002,1.145 L41.002,1.145 Q42.127,1.145 42.127,2.27 Q42.127,3.395 41.002,3.395 L19.002,3.395 Q17.877,3.395 17.877,2.27 Q17.877,1.145 19.002,1.145 Z"/>
  </g>
  <g id="Ultralight-L" transform="matrix(1 0 0 1 521.009 1556)">
   <path class="monochrome-0 multicolor-0:labelColor hierarchical-0:primary SFSymbolsPreviewWireframe" d="M38.702,-90.055 C55.36,-90.055 70.149,-79.396 75.417,-63.593 C80.684,-47.79 75.249,-30.39 61.922,-20.395 C57.407,-16.525 54.827,-12.01 54.827,-6.205 L54.827,-2.98 L22.577,-2.98 L22.577,-6.205 C22.577,-12.01 19.997,-16.525 15.482,-20.395 C2.156,-30.39 -3.279,-47.79 1.988,-63.593 C7.256,-79.396 22.045,-90.055 38.702,-90.055 Z"/>
   <path class="monochrome-1 multicolor-1:labelColor hierarchical-1:secondary SFSymbolsPreviewWireframe" d="M24.512,11.694 L52.892,11.694 Q54.344,11.694 54.344,13.145 Q54.344,14.596 52.892,14.596 L24.512,14.596 Q23.061,14.596 23.061,13.145 Q23.061,11.694 24.512,11.694 Z"/>
  </g>
  <g id="Thin-S" transform="matrix(1 0 0 1 832.930 696)">
   <path class="monochrome-0 multicolor-0:labelColor hierarchical-0:primary SFSymbolsPreviewWireframe" d="M23.492,-68.507 C33.602,-68.507 42.579,-62.038 45.776,-52.446 C48.973,-42.854 45.674,-32.292 37.586,-26.225 C34.845,-23.877 33.279,-21.136 33.279,-17.613 L33.279,-15.655 L13.704,-15.655 L13.704,-17.613 C13.704,-21.136 12.138,-23.877 9.398,-26.225 C1.309,-32.292 -1.99,-42.854 1.207,-52.446 C4.404,-62.038 13.381,-68.507 23.492,-68.507 Z"/>
   <path class="monochrome-1 multicolor-1:labelColor hierarchical-1:secondary SFSymbolsPreviewWireframe" d="M14.879,-7.238 L32.105,-7.238 Q33.475,-7.238 33.475,-5.868 Q33.475,-4.497 32.105,-4.497 L14.879,-4.497 Q13.508,-4.497 13.508,-5.868 Q13.508,-7.238 14.879,-7.238 Z"/>
  </g>
  <g id="Thin-M" transform="matrix(1 0 0 1 826.420 1126)">
   <path class="monochrome-0 multicolor-0:labelColor hierarchical-0:primary SFSymbolsPreviewWireframe" d="M30.002,-77.73 C42.915,-77.73 54.379,-69.467 58.462,-57.217 C62.546,-44.967 58.332,-31.478 48.002,-23.73 C44.502,-20.73 42.502,-17.23 42.502,-12.73 L42.502,-10.23 L17.502,-10.23 L17.502,-12.73 C17.502,-17.23 15.502,-20.73 12.002,-23.73 C1.672,-31.478 -2.542,-44.967 1.541,-57.217 C5.625,-69.467 17.089,-77.73 30.002,-77.73 Z"/>
   <path class="monochrome-1 multicolor-1:labelColor hierarchical-1:secondary SFSymbolsPreviewWireframe" d="M19.002,0.52 L41.002,0.52 Q42.752,0.52 42.752,2.27 Q42.752,4.02 41.002,4.02 L19.002,4.02 Q17.252,4.02 17.252,2.27 Q17.252,0.52 19.002,0.52 Z"/>
  </g>
  <g id="Thin-L" transform="matrix(1 0 0 1 817.720 1556)">
   <path class="monochrome-0 multicolor-0:labelColor hierarchical-0:primary SFSymbolsPreviewWireframe" d="M38.702,-90.055 C55.36,-90.055 70.149,-79.396 75.417,-63.593 C80.684,-47.79 75.249,-30.39 61.922,-20.395 C57.407,-16.525 54.827,-12.01 54.827,-6.205 L54.827,-2.98 L22.577,-2.98 L22.577,-6.205 C22.577,-12.01 19.997,-16.525 15.482,-20.395 C2.156,-30.39 -3.279,-47.79 1.988,-63.593 C7.256,-79.396 22.045,-90.055 38.702,-90.055 Z"/>
   <path class="monochrome-1 multicolor-1:labelColor hierarchical-1:secondary SFSymbolsPreviewWireframe" d="M24.512,10.887 L52.892,10.887 Q55.15,10.887 55.15,13.145 Q55.15,15.403 52.892,15.403 L24.512,15.403 Q22.255,15.403 22.255,13.145 Q22.255,10.887 24.512,10.887 Z"/>
  </g>
  <g id="Light-S" transform="matrix(1 0 0 1 1129.641 696)">
   <path class="monochrome-0 multicolor-0:labelColor hierarchical-0:primary SFSymbolsPreviewWireframe" d="M23.492,-68.507 C33.602,-68.507 42.579,-62.038 45.776,-52.446 C48.973,-42.854 45.674,-32.292 37.586,-26.225 C34.845,-23.877 33.279,-21.136 33.279,-17.613 L33.279,-15.655 L13.704,-15.655 L13.704,-17.613 C13.704,-21.136 12.138,-23.877 9.398,-26.225 C1.309,-32.292 -1.99,-42.854 1.207,-52.446 C4.404,-62.038 13.381,-68.507 23.492,-68.507 Z"/>
   <path class="monochrome-1 multicolor-1:labelColor hierarchical-1:secondary SFSymbolsPreviewWireframe" d="M14.879,-8.021 L32.105,-8.021 Q34.258,-8.021 34.258,-5.868 Q34.258,-3.714 32.105,-3.714 L14.879,-3.714 Q12.725,-3.714 12.725,-5.868 Q12.725,-8.021 14.879,-8.021 Z"/>
  </g>
  <g id="Light-M" transform="matrix(1 0 0 1 1123.131 1126)">
   <path class="monochrome-0 multicolor-0:labelColor hierarchical-0:primary SFSymbolsPreviewWireframe" d="M30.002,-77.73 C42.915,-77.73 54.379,-69.467 58.462,-57.217 C62.546,-44.967 58.332,-31.478 48.002,-23.73 C44.502,-20.73 42.502,-17.23 42.502,-12.73 L42.502,-10.23 L17.502,-10.23 L17.502,-12.73 C17.502,-17.23 15.502,-20.73 12.002,-23.73 C1.672,-31.478 -2.542,-44.967 1.541,-57.217 C5.625,-69.467 17.089,-77.73 30.002,-77.73 Z"/>
   <path class="monochrome-1 multicolor-1:labelColor hierarchical-1:secondary SFSymbolsPreviewWireframe" d="M19.002,-0.48 L41.002,-0.48 Q43.752,-0.48 43.752,2.27 Q43.752,5.02 41.002,5.02 L19.002,5.02 Q16.252,5.02 16.252,2.27 Q16.252,-0.48 19.002,-0.48 Z"/>
  </g>
  <g id="Light-L" transform="matrix(1 0 0 1 1114.431 1556)">
   <path class="monochrome-0 multicolor-0:labelColor hierarchical-0:primary SFSymbolsPreviewWireframe" d="M38.702,-90.055 C55.36,-90.055 70.149,-79.396 75.417,-63.593 C80.684,-47.79 75.249,-30.39 61.922,-20.395 C57.407,-16.525 54.827,-12.01 54.827,-6.205 L54.827,-2.98 L22.577,-2.98 L22.577,-6.205 C22.577,-12.01 19.997,-16.525 15.482,-20.395 C2.156,-30.39 -3.279,-47.79 1.988,-63.593 C7.256,-79.396 22.045,-90.055 38.702,-90.055 Z"/>
   <path class="monochrome-1 multicolor-1:labelColor hierarchical-1:secondary SFSymbolsPreviewWireframe" d="M24.512,9.598 L52.892,9.598 Q56.44,9.598 56.44,13.145 Q56.44,16.692 52.892,16.692 L24.512,16.692 Q20.965,16.692 20.965,13.145 Q20.965,9.598 24.512,9.598 Z"/>
  </g>
  <g id="Regular-S" transform="matrix(1 0 0 1 1426.352 696)">
   <path class="monochrome-0 multicolor-0:labelColor hierarchical-0:primary SFSymbolsPreviewWireframe" d="M23.492,-68.507 C33.602,-68.507 42.579,-62.038 45.776,-52.446 C48.973,-42.854 45.674,-32.292 37.586,-26.225 C34.845,-23.877 33.279,-21.136 33.279,-17.613 L33.279,-15.655 L13.704,-15.655 L13.704,-17.613 C13.704,-21.136 12.138,-23.877 9.398,-26.225 C1.309,-32.292 -1.99,-42.854 1.207,-52.446 C4.404,-62.038 13.381,-68.507 23.492,-68.507 Z"/>
   <path class="monochrome-1 multicolor-1:labelColor hierarchical-1:secondary SFSymbolsPreviewWireframe" d="M14.879,-8.999 L32.105,-8.999 Q35.237,-8.999 35.237,-5.868 Q35.237,-2.736 32.105,-2.736 L14.879,-2.736 Q11.747,-2.736 11.747,-5.868 Q11.747,-8.999 14.879,-8.999 Z"/>
  </g>
  <g id="Regular-M" transform="matrix(1 0 0 1 1419.842 1126)">
   <path class="monochrome-0 multicolor-0:labelColor hierarchical-0:primary SFSymbolsPreviewWireframe" d="M30.002,-77.73 C42.915,-77.73 54.379,-69.467 58.462,-57.217 C62.546,-44.967 58.332,-31.478 48.002,-23.73 C44.502,-20.73 42.502,-17.23 42.502,-12.73 L42.502,-10.23 L17.502,-10.23 L17.502,-12.73 C17.502,-17.23 15.502,-20.73 12.002,-23.73 C1.672,-31.478 -2.542,-44.967 1.541,-57.217 C5.625,-69.467 17.089,-77.73 30.002,-77.73 Z"/>
   <path class="monochrome-1 multicolor-1:labelColor hierarchical-1:secondary SFSymbolsPreviewWireframe" d="M19.002,-1.73 L41.002,-1.73 Q45.002,-1.73 45.002,2.27 Q45.002,6.27 41.002,6.27 L19.002,6.27 Q15.002,6.27 15.002,2.27 Q15.002,-1.73 19.002,-1.73 Z"/>
  </g>
  <g id="Regular-L" transform="matrix(1 0 0 1 1411.142 1556)">
   <path class="monochrome-0 multicolor-0:labelColor hierarchical-0:primary SFSymbolsPreviewWireframe" d="M38.702,-90.055 C55.36,-90.055 70.149,-79.396 75.417,-63.593 C80.684,-47.79 75.249,-30.39 61.922,-20.395 C57.407,-16.525 54.827,-12.01 54.827,-6.205 L54.827,-2.98 L22.577,-2.98 L22.577,-6.205 C22.577,-12.01 19.997,-16.525 15.482,-20.395 C2.156,-30.39 -3.279,-47.79 1.988,-63.593 C7.256,-79.396 22.045,-90.055 38.702,-90.055 Z"/>
   <path class="monochrome-1 multicolor-1:labelColor hierarchical-1:secondary SFSymbolsPreviewWireframe" d="M24.512,7.985 L52.892,7.985 Q58.052,7.985 58.052,13.145 Q58.052,18.305 52.892,18.305 L24.512,18.305 Q19.352,18.305 19.352,13.145 Q19.352,7.985 24.512,7.985 Z"/>
  </g>
  <g id="Medium-S" transform="matrix(1 0 0 1 1723.063 696)">
   <path class="monochrome-0 multicolor-0:labelColor hierarchical-0:primary SFSymbolsPreviewWireframe" d="M23.492,-68.507 C33.602,-68.507 42.579,-62.038 45.776,-52.446 C48.973,-42.854 45.674,-32.292 37.586,-26.225 C34.845,-23.877 33.279,-21.136 33.279,-17.613 L33.279,-15.655 L13.704,-15.655 L13.704,-17.613 C13.704,-21.136 12.138,-23.877 9.398,-26.225 C1.309,-32.292 -1.99,-42.854 1.207,-52.446 C4.404,-62.038 13.381,-68.507 23.492,-68.507 Z"/>
   <path class="monochrome-1 multicolor-1:labelColor hierarchical-1:secondary SFSymbolsPreviewWireframe" d="M14.879,-9.489 L32.105,-9.489 Q35.726,-9.489 35.726,-5.868 Q35.726,-2.246 32.105,-2.246 L14.879,-2.246 Q11.257,-2.246 11.257,-5.868 Q11.257,-9.489 14.879,-9.489 Z"/>
  </g>
  <g id="Medium-M" transform="matrix(1 0 0 1 1716.553 1126)">
   <path class="monochrome-0 multicolor-0:labelColor hierarchical-0:primary SFSymbolsPreviewWireframe" d="M30.002,-77.73 C42.915,-77.73 54.379,-69.467 58.462,-57.217 C62.546,-44.967 58.332,-31.478 48.002,-23.73 C44.502,-20.73 42.502,-17.23 42.502,-12.73 L42.502,-10.23 L17.502,-10.23 L17.502,-12.73 C17.502,-17.23 15.502,-20.73 12.002,-23.73 C1.672,-31.478 -2.542,-44.967 1.541,-57.217 C5.625,-69.467 17.089,-77.73 30.002,-77.73 Z"/>
   <path class="monochrome-1 multicolor-1:labelColor hierarchical-1:secondary SFSymbolsPreviewWireframe" d="M19.002,-2.355 L41.002,-2.355 Q45.627,-2.355 45.627,2.27 Q45.627,6.895 41.002,6.895 L19.002,6.895 Q14.377,6.895 14.377,2.27 Q14.377,-2.355 19.002,-2.355 Z"/>
  </g>
  <g id="Medium-L" transform="matrix(1 0 0 1 1707.853 1556)">
   <path class="monochrome-0 multicolor-0:labelColor hierarchical-0:primary SFSymbolsPreviewWireframe" d="M38.702,-90.055 C55.36,-90.055 70.149,-79.396 75.417,-63.593 C80.684,-47.79 75.249,-30.39 61.922,-20.395 C57.407,-16.525 54.827,-12.01 54.827,-6.205 L54.827,-2.98 L22.577,-2.98 L22.577,-6.205 C22.577,-12.01 19.997,-16.525 15.482,-20.395 C2.156,-30.39 -3.279,-47.79 1.988,-63.593 C7.256,-79.396 22.045,-90.055 38.702,-90.055 Z"/>
   <path class="monochrome-1 multicolor-1:labelColor hierarchical-1:secondary SFSymbolsPreviewWireframe" d="M24.512,7.179 L52.892,7.179 Q58.859,7.179 58.859,13.145 Q58.859,19.111 52.892,19.111 L24.512,19.111 Q18.546,19.111 18.546,13.145 Q18.546,7.179 24.512,7.179 Z"/>
  </g>
  <g id="Semibold-S" transform="matrix(1 0 0 1 2019.774 696)">
   <path class="monochrome-0 multicolor-0:labelColor hierarchical-0:primary SFSymbolsPreviewWireframe" d="M23.492,-68.507 C33.602,-68.507 42.579,-62.038 45.776,-52.446 C48.973,-42.854 45.674,-32.292 37.586,-26.225 C34.845,-23.877 33.279,-21.136 33.279,-17.613 L33.279,-15.655 L13.704,-15.655 L13.704,-17.613 C13.704,-21.136 12.138,-23.877 9.398,-26.225 C1.309,-32.292 -1.99,-42.854 1.207,-52.446 C4.404,-62.038 13.381,-68.507 23.492,-68.507 Z"/>
   <path class="monochrome-1 multicolor-1:labelColor hierarchical-1:secondary SFSymbolsPreviewWireframe" d="M14.879,-9.978 L32.105,-9.978 Q36.215,-9.978 36.215,-5.868 Q36.215,-1.757 32.105,-1.757 L14.879,-1.757 Q10.768,-1.757 10.768,-5.868 Q10.768,-9.978 14.879,-9.978 Z"/>
  </g>
  <g id="Semibold-M" transform="matrix(1 0 0 1 2013.264 1126)">
   <path class="monochrome-0 multicolor-0:labelColor hierarchical-0:primary SFSymbolsPreviewWireframe" d="M30.002,-77.73 C42.915,-77.73 54.379,-69.467 58.462,-57.217 C62.546,-44.967 58.332,-31.478 48.002,-23.73 C44.502,-20.73 42.502,-17.23 42.502,-12.73 L42.502,-10.23 L17.502,-10.23 L17.502,-12.73 C17.502,-17.23 15.502,-20.73 12.002,-23.73 C1.672,-31.478 -2.542,-44.967 1.541,-57.217 C5.625,-69.467 17.089,-77.73 30.002,-77.73 Z"/>
   <path class="monochrome-1 multicolor-1:labelColor hierarchical-1:secondary SFSymbolsPreviewWireframe" d="M19.002,-2.98 L41.002,-2.98 Q46.252,-2.98 46.252,2.27 Q46.252,7.52 41.002,7.52 L19.002,7.52 Q13.752,7.52 13.752,2.27 Q13.752,-2.98 19.002,-2.98 Z"/>
  </g>
  <g id="Semibold-L" transform="matrix(1 0 0 1 2004.564 1556)">
   <path class="monochrome-0 multicolor-0:labelColor hierarchical-0:primary SFSymbolsPreviewWireframe" d="M38.702,-90.055 C55.36,-90.055 70.149,-79.396 75.417,-63.593 C80.684,-47.79 75.249,-30.39 61.922,-20.395 C57.407,-16.525 54.827,-12.01 54.827,-6.205 L54.827,-2.98 L22.577,-2.98 L22.577,-6.205 C22.577,-12.01 19.997,-16.525 15.482,-20.395 C2.156,-30.39 -3.279,-47.79 1.988,-63.593 C7.256,-79.396 22.045,-90.055 38.702,-90.055 Z"/>
   <path class="monochrome-1 multicolor-1:labelColor hierarchical-1:secondary SFSymbolsPreviewWireframe" d="M24.512,6.373 L52.892,6.373 Q59.665,6.373 59.665,13.145 Q59.665,19.917 52.892,19.917 L24.512,19.917 Q17.74,19.917 17.74,13.145 Q17.74,6.373 24.512,6.373 Z"/>
  </g>
  <g id="Bold-S" transform="matrix(1 0 0 1 2316.485 696)">
   <path class="monochrome-0 multicolor-0:labelColor hierarchical-0:primary SFSymbolsPreviewWireframe" d="M23.492,-68.507 C33.602,-68.507 42.579,-62.038 45.776,-52.446 C48.973,-42.854 45.674,-32.292 37.586,-26.225 C34.845,-23.877 33.279,-21.136 33.279,-17.613 L33.279,-15.655 L13.704,-15.655 L13.704,-17.613 C13.704,-21.136 12.138,-23.877 9.398,-26.225 C1.309,-32.292 -1.99,-42.854 1.207,-52.446 C4.404,-62.038 13.381,-68.507 23.492,-68.507 Z"/>
   <path class="monochrome-1 multicolor-1:labelColor hierarchical-1:secondary SFSymbolsPreviewWireframe" d="M14.879,-10.566 L32.105,-10.566 Q36.803,-10.566 36.803,-5.868 Q36.803,-1.169 32.105,-1.169 L14.879,-1.169 Q10.181,-1.169 10.181,-5.868 Q10.181,-10.566 14.879,-10.566 Z"/>
  </g>
  <g id="Bold-M" transform="matrix(1 0 0 1 2309.975 1126)">
   <path class="monochrome-0 multicolor-0:labelColor hierarchical-0:primary SFSymbolsPreviewWireframe" d="M30.002,-77.73 C42.915,-77.73 54.379,-69.467 58.462,-57.217 C62.546,-44.967 58.332,-31.478 48.002,-23.73 C44.502,-20.73 42.502,-17.23 42.502,-12.73 L42.502,-10.23 L17.502,-10.23 L17.502,-12.73 C17.502,-17.23 15.502,-20.73 12.002,-23.73 C1.672,-31.478 -2.542,-44.967 1.541,-57.217 C5.625,-69.467 17.089,-77.73 30.002,-77.73 Z"/>
   <path class="monochrome-1 multicolor-1:labelColor hierarchical-1:secondary SFSymbolsPreviewWireframe" d="M19.002,-3.73 L41.002,-3.73 Q47.002,-3.73 47.002,2.27 Q47.002,8.27 41.002,8.27 L19.002,8.27 Q13.002,8.27 13.002,2.27 Q13.002,-3.73 19.002,-3.73 Z"/>
  </g>
  <g id="Bold-L" transform="matrix(1 0 0 1 2301.275 1556)">
   <path class="monochrome-0 multicolor-0:labelColor hierarchical-0:primary SFSymbolsPreviewWireframe" d="M38.702,-90.055 C55.36,-90.055 70.149,-79.396 75.417,-63.593 C80.684,-47.79 75.249,-30.39 61.922,-20.395 C57.407,-16.525 54.827,-12.01 54.827,-6.205 L54.827,-2.98 L22.577,-2.98 L22.577,-6.205 C22.577,-12.01 19.997,-16.525 15.482,-20.395 C2.156,-30.39 -3.279,-47.79 1.988,-63.593 C7.256,-79.396 22.045,-90.055 38.702,-90.055 Z"/>
   <path class="monochrome-1 multicolor-1:labelColor hierarchical-1:secondary SFSymbolsPreviewWireframe" d="M24.512,5.405 L52.892,5.405 Q60.632,5.405 60.632,13.145 Q60.632,20.885 52.892,20.885 L24.512,20.885 Q16.772,20.885 16.772,13.145 Q16.772,5.405 24.512,5.405 Z"/>
  </g>
  <g id="Heavy-S" transform="matrix(1 0 0 1 2613.196 696)">
   <path class="monochrome-0 multicolor-0:labelColor hierarchical-0:primary SFSymbolsPreviewWireframe" d="M23.492,-68.507 C33.602,-68.507 42.579,-62.038 45.776,-52.446 C48.973,-42.854 45.674,-32.292 37.586,-26.225 C34.845,-23.877 33.279,-21.136 33.279,-17.613 L33.279,-15.655 L13.704,-15.655 L13.704,-17.613 C13.704,-21.136 12.138,-23.877 9.398,-26.225 C1.309,-32.292 -1.99,-42.854 1.207,-52.446 C4.404,-62.038 13.381,-68.507 23.492,-68.507 Z"/>
   <path class="monochrome-1 multicolor-1:labelColor hierarchical-1:secondary SFSymbolsPreviewWireframe" d="M14.879,-11.153 L32.105,-11.153 Q37.39,-11.153 37.39,-5.868 Q37.39,-0.582 32.105,-0.582 L14.879,-0.582 Q9.593,-0.582 9.593,-5.868 Q9.593,-11.153 14.879,-11.153 Z"/>
  </g>
  <g id="Heavy-M" transform="matrix(1 0 0 1 2606.686 1126)">
   <path class="monochrome-0 multicolor-0:labelColor hierarchical-0:primary SFSymbolsPreviewWireframe" d="M30.002,-77.73 C42.915,-77.73 54.379,-69.467 58.462,-57.217 C62.546,-44.967 58.332,-31.478 48.002,-23.73 C44.502,-20.73 42.502,-17.23 42.502,-12.73 L42.502,-10.23 L17.502,-10.23 L17.502,-12.73 C17.502,-17.23 15.502,-20.73 12.002,-23.73 C1.672,-31.478 -2.542,-44.967 1.541,-57.217 C5.625,-69.467 17.089,-77.73 30.002,-77.73 Z"/>
   <path class="monochrome-1 multicolor-1:labelColor hierarchical-1:secondary SFSymbolsPreviewWireframe" d="M19.002,-4.48 L41.002,-4.48 Q47.752,-4.48 47.752,2.27 Q47.752,9.02 41.002,9.02 L19.002,9.02 Q12.252,9.02 12.252,2.27 Q12.252,-4.48 19.002,-4.48 Z"/>
  </g>
  <g id="Heavy-L" transform="matrix(1 0 0 1 2597.986 1556)">
   <path class="monochrome-0 multicolor-0:labelColor hierarchical-0:primary SFSymbolsPreviewWireframe" d="M38.702,-90.055 C55.36,-90.055 70.149,-79.396 75.417,-63.593 C80.684,-47.79 75.249,-30.39 61.922,-20.395 C57.407,-16.525 54.827,-12.01 54.827,-6.205 L54.827,-2.98 L22.577,-2.98 L22.577,-6.205 C22.577,-12.01 19.997,-16.525 15.482,-20.395 C2.156,-30.39 -3.279,-47.79 1.988,-63.593 C7.256,-79.396 22.045,-90.055 38.702,-90.055 Z"/>
   <path class="monochrome-1 multicolor-1:labelColor hierarchical-1:secondary SFSymbolsPreviewWireframe" d="M24.512,4.438 L52.892,4.438 Q61.6,4.438 61.6,13.145 Q61.6,21.853 52.892,21.853 L24.512,21.853 Q15.805,21.853 15.805,13.145 Q15.805,4.438 24.512,4.438 Z"/>
  </g>
  <g id="Black-S" transform="matrix(1 0 0 1 2909.907 696)">
   <path class="monochrome-0 multicolor-0:labelColor hierarchical-0:primary SFSymbolsPreviewWireframe" d="M23.492,-68.507 C33.602,-68.507 42.579,-62.038 45.776,-52.446 C48.973,-42.854 45.674,-32.292 37.586,-26.225 C34.845,-23.877 33.279,-21.136 33.279,-17.613 L33.279,-15.655 L13.704,-15.655 L13.704,-17.613 C13.704,-21.136 12.138,-23.877 9.398,-26.225 C1.309,-32.292 -1.99,-42.854 1.207,-52.446 C4.404,-62.038 13.381,-68.507 23.492,-68.507 Z"/>
   <path class="monochrome-1 multicolor-1:labelColor hierarchical-1:secondary SFSymbolsPreviewWireframe" d="M14.879,-11.74 L32.105,-11.74 Q37.977,-11.74 37.977,-5.868 Q37.977,0.005 32.105,0.005 L14.879,0.005 Q9.006,0.005 9.006,-5.868 Q9.006,-11.74 14.879,-11.74 Z"/>
  </g>
  <g id="Black-M" transform="matrix(1 0 0 1 2903.397 1126)">
   <path class="monochrome-0 multicolor-0:labelColor hierarchical-0:primary SFSymbolsPreviewWireframe" d="M30.002,-77.73 C42.915,-77.73 54.379,-69.467 58.462,-57.217 C62.546,-44.967 58.332,-31.478 48.002,-23.73 C44.502,-20.73 42.502,-17.23 42.502,-12.73 L42.502,-10.23 L17.502,-10.23 L17.502,-12.73 C17.502,-17.23 15.502,-20.73 12.002,-23.73 C1.672,-31.478 -2.542,-44.967 1.541,-57.217 C5.625,-69.467 17.089,-77.73 30.002,-77.73 Z"/>
   <path class="monochrome-1 multicolor-1:labelColor hierarchical-1:secondary SFSymbolsPreviewWireframe" d="M19.002,-5.23 L41.002,-5.23 Q48.502,-5.23 48.502,2.27 Q48.502,9.77 41.002,9.77 L19.002,9.77 Q11.502,9.77 11.502,2.27 Q11.502,-5.23 19.002,-5.23 Z"/>
  </g>
  <g id="Black-L" transform="matrix(1 0 0 1 2894.697 1556)">
   <path class="monochrome-0 multicolor-0:labelColor hierarchical-0:primary SFSymbolsPreviewWireframe" d="M38.702,-90.055 C55.36,-90.055 70.149,-79.396 75.417,-63.593 C80.684,-47.79 75.249,-30.39 61.922,-20.395 C57.407,-16.525 54.827,-12.01 54.827,-6.205 L54.827,-2.98 L22.577,-2.98 L22.577,-6.205 C22.577,-12.01 19.997,-16.525 15.482,-20.395 C2.156,-30.39 -3.279,-47.79 1.988,-63.593 C7.256,-79.396 22.045,-90.055 38.702,-90.055 Z"/>
   <path class="monochrome-1 multicolor-1:labelColor hierarchical-1:secondary SFSymbolsPreviewWireframe" d="M24.512,3.47 L52.892,3.47 Q62.567,3.47 62.567,13.145 Q62.567,22.82 52.892,22.82 L24.512,22.82 Q14.837,22.82 14.837,13.145 Q14.837,3.47 24.512,3.47 Z"/>
  </g>
 </g>
</svg>
