<?xml version="1.0" encoding="UTF-8"?>
<!DOCTYPE svg PUBLIC "-//W3C//DTD SVG 1.1//EN" "http://www.w3.org/Graphics/SVG/1.1/DTD/svg11.dtd">
<svg version="1.1" xmlns="http://www.w3.org/2000/svg" xmlns:xlink="http://www.w3.org/1999/xlink" viewBox="0 0 3300 2200">
 <!--glyph: "fotu.slider.expired.high", generated by tools/build-glyphs.py. Fotufilm glyphs, Copyright 2026 MUAStudio Inc., CC BY-SA 4.0 (https://creativecommons.org/licenses/by-sa/4.0/), https://fotufilm.com, see licenses/GLYPHS.txt-->
 <style>.monochrome-0 {}
.multicolor-0:labelColor {}
.hierarchical-0:primary {}
.SFSymbolsPreviewWireframe {fill:none;opacity:1.0;stroke:black;stroke-width:0.5}
</style>
 <g id="Notes">
  <rect height="2200" id="artboard" style="fill:white;opacity:1" width="3300" x="0" y="0"/>
  <text id="template-version" style="stroke:none;fill:black;font-family:sans-serif;font-size:13;text-anchor:end;" transform="matrix(1 0 0 1 3036 1933)">Template v.6.0</text>
  <text id="descriptive-name" style="stroke:none;fill:black;font-family:sans-serif;font-size:13;text-anchor:end;" transform="matrix(1 0 0 1 3036 1969)">fotu.slider.expired.high</text>
 </g>
 <g id="Guides">
  <line id="Baseline-S" style="fill:none;stroke:#27AAE1;opacity:1;stroke-width:0.5;" x1="263" x2="3036" y1="696" y2="696"/>
  <line id="Capline-S" style="fill:none;stroke:#27AAE1;opacity:1;stroke-width:0.5;" x1="263" x2="3036" y1="625.54" y2="625.54"/>
  <line id="Baseline-M" style="fill:none;stroke:#27AAE1;opacity:1;stroke-width:0.5;" x1="263" x2="3036" y1="1126" y2="1126"/>
  <line id="Capline-M" style="fill:none;stroke:#27AAE1;opacity:1;stroke-width:0.5;" x1="263" x2="3036" y1="1055.54" y2="1055.54"/>
  <line id="Baseline-L" style="fill:none;stroke:#27AAE1;opacity:1;stroke-width:0.5;" x1="263" x2="3036" y1="1556" y2="1556"/>
  <line id="Capline-L" style="fill:none;stroke:#27AAE1;opacity:1;stroke-width:0.5;" x1="263" x2="3036" y1="1485.54" y2="1485.54"/>
  <line id="left-margin-Ultralight-S" style="fill:none;stroke:#00AEEF;stroke-width:0.5;opacity:1.0;" x1="537.298" x2="537.298" y1="601.0" y2="721.0"/>
  <line id="right-margin-Ultralight-S" style="fill:none;stroke:#FF3B30;stroke-width:0.5;opacity:1.0;" x1="582.124" x2="582.124" y1="601.0" y2="721.0"/>
  <line id="left-margin-Ultralight-M" style="fill:none;stroke:#00AEEF;stroke-width:0.5;opacity:1.0;" x1="531.086" x2="531.086" y1="1031.0" y2="1151.0"/>
  <line id="right-margin-Ultralight-M" style="fill:none;stroke:#FF3B30;stroke-width:0.5;opacity:1.0;" x1="588.336" x2="588.336" y1="1031.0" y2="1151.0"/>
  <line id="left-margin-Ultralight-L" style="fill:none;stroke:#00AEEF;stroke-width:0.5;opacity:1.0;" x1="522.785" x2="522.785" y1="1461.0" y2="1581.0"/>
  <line id="right-margin-Ultralight-L" style="fill:none;stroke:#FF3B30;stroke-width:0.5;opacity:1.0;" x1="596.637" x2="596.637" y1="1461.0" y2="1581.0"/>
  <line id="left-margin-Thin-S" style="fill:none;stroke:#00AEEF;stroke-width:0.5;opacity:1.0;" x1="833.519" x2="833.519" y1="601.0" y2="721.0"/>
  <line id="right-margin-Thin-S" style="fill:none;stroke:#FF3B30;stroke-width:0.5;opacity:1.0;" x1="879.325" x2="879.325" y1="601.0" y2="721.0"/>
  <line id="left-margin-Thin-M" style="fill:none;stroke:#00AEEF;stroke-width:0.5;opacity:1.0;" x1="827.172" x2="827.172" y1="1031.0" y2="1151.0"/>
  <line id="right-margin-Thin-M" style="fill:none;stroke:#FF3B30;stroke-width:0.5;opacity:1.0;" x1="885.672" x2="885.672" y1="1031.0" y2="1151.0"/>
  <line id="left-margin-Thin-L" style="fill:none;stroke:#00AEEF;stroke-width:0.5;opacity:1.0;" x1="818.689" x2="818.689" y1="1461.0" y2="1581.0"/>
  <line id="right-margin-Thin-L" style="fill:none;stroke:#FF3B30;stroke-width:0.5;opacity:1.0;" x1="894.155" x2="894.155" y1="1461.0" y2="1581.0"/>
  <line id="left-margin-Light-S" style="fill:none;stroke:#00AEEF;stroke-width:0.5;opacity:1.0;" x1="1129.447" x2="1129.447" y1="601.0" y2="721.0"/>
  <line id="right-margin-Light-S" style="fill:none;stroke:#FF3B30;stroke-width:0.5;opacity:1.0;" x1="1176.819" x2="1176.819" y1="601.0" y2="721.0"/>
  <line id="left-margin-Light-M" style="fill:none;stroke:#00AEEF;stroke-width:0.5;opacity:1.0;" x1="1122.883" x2="1122.883" y1="1031.0" y2="1151.0"/>
  <line id="right-margin-Light-M" style="fill:none;stroke:#FF3B30;stroke-width:0.5;opacity:1.0;" x1="1183.383" x2="1183.383" y1="1031.0" y2="1151.0"/>
  <line id="left-margin-Light-L" style="fill:none;stroke:#00AEEF;stroke-width:0.5;opacity:1.0;" x1="1114.111" x2="1114.111" y1="1461.0" y2="1581.0"/>
  <line id="right-margin-Light-L" style="fill:none;stroke:#FF3B30;stroke-width:0.5;opacity:1.0;" x1="1192.155" x2="1192.155" y1="1461.0" y2="1581.0"/>
  <line id="left-margin-Regular-S" style="fill:none;stroke:#00AEEF;stroke-width:0.5;opacity:1.0;" x1="1425.180" x2="1425.180" y1="601.0" y2="721.0"/>
  <line id="right-margin-Regular-S" style="fill:none;stroke:#FF3B30;stroke-width:0.5;opacity:1.0;" x1="1474.508" x2="1474.508" y1="601.0" y2="721.0"/>
  <line id="left-margin-Regular-M" style="fill:none;stroke:#00AEEF;stroke-width:0.5;opacity:1.0;" x1="1418.344" x2="1418.344" y1="1031.0" y2="1151.0"/>
  <line id="right-margin-Regular-M" style="fill:none;stroke:#FF3B30;stroke-width:0.5;opacity:1.0;" x1="1481.344" x2="1481.344" y1="1031.0" y2="1151.0"/>
  <line id="left-margin-Regular-L" style="fill:none;stroke:#00AEEF;stroke-width:0.5;opacity:1.0;" x1="1409.209" x2="1409.209" y1="1461.0" y2="1581.0"/>
  <line id="right-margin-Regular-L" style="fill:none;stroke:#FF3B30;stroke-width:0.5;opacity:1.0;" x1="1490.479" x2="1490.479" y1="1461.0" y2="1581.0"/>
  <line id="left-margin-Medium-S" style="fill:none;stroke:#00AEEF;stroke-width:0.5;opacity:1.0;" x1="1721.401" x2="1721.401" y1="601.0" y2="721.0"/>
  <line id="right-margin-Medium-S" style="fill:none;stroke:#FF3B30;stroke-width:0.5;opacity:1.0;" x1="1771.709" x2="1771.709" y1="601.0" y2="721.0"/>
  <line id="left-margin-Medium-M" style="fill:none;stroke:#00AEEF;stroke-width:0.5;opacity:1.0;" x1="1714.430" x2="1714.430" y1="1031.0" y2="1151.0"/>
  <line id="right-margin-Medium-M" style="fill:none;stroke:#FF3B30;stroke-width:0.5;opacity:1.0;" x1="1778.680" x2="1778.680" y1="1031.0" y2="1151.0"/>
  <line id="left-margin-Medium-L" style="fill:none;stroke:#00AEEF;stroke-width:0.5;opacity:1.0;" x1="1705.114" x2="1705.114" y1="1461.0" y2="1581.0"/>
  <line id="right-margin-Medium-L" style="fill:none;stroke:#FF3B30;stroke-width:0.5;opacity:1.0;" x1="1787.996" x2="1787.996" y1="1461.0" y2="1581.0"/>
  <line id="left-margin-Semibold-S" style="fill:none;stroke:#00AEEF;stroke-width:0.5;opacity:1.0;" x1="2017.623" x2="2017.623" y1="601.0" y2="721.0"/>
  <line id="right-margin-Semibold-S" style="fill:none;stroke:#FF3B30;stroke-width:0.5;opacity:1.0;" x1="2068.909" x2="2068.909" y1="601.0" y2="721.0"/>
  <line id="left-margin-Semibold-M" style="fill:none;stroke:#00AEEF;stroke-width:0.5;opacity:1.0;" x1="2010.516" x2="2010.516" y1="1031.0" y2="1151.0"/>
  <line id="right-margin-Semibold-M" style="fill:none;stroke:#FF3B30;stroke-width:0.5;opacity:1.0;" x1="2076.016" x2="2076.016" y1="1031.0" y2="1151.0"/>
  <line id="left-margin-Semibold-L" style="fill:none;stroke:#00AEEF;stroke-width:0.5;opacity:1.0;" x1="2001.019" x2="2001.019" y1="1461.0" y2="1581.0"/>
  <line id="right-margin-Semibold-L" style="fill:none;stroke:#FF3B30;stroke-width:0.5;opacity:1.0;" x1="2085.513" x2="2085.513" y1="1461.0" y2="1581.0"/>
  <line id="left-margin-Bold-S" style="fill:none;stroke:#00AEEF;stroke-width:0.5;opacity:1.0;" x1="2313.746" x2="2313.746" y1="601.0" y2="721.0"/>
  <line id="right-margin-Bold-S" style="fill:none;stroke:#FF3B30;stroke-width:0.5;opacity:1.0;" x1="2366.208" x2="2366.208" y1="601.0" y2="721.0"/>
  <line id="left-margin-Bold-M" style="fill:none;stroke:#00AEEF;stroke-width:0.5;opacity:1.0;" x1="2306.477" x2="2306.477" y1="1031.0" y2="1151.0"/>
  <line id="right-margin-Bold-M" style="fill:none;stroke:#FF3B30;stroke-width:0.5;opacity:1.0;" x1="2373.477" x2="2373.477" y1="1031.0" y2="1151.0"/>
  <line id="left-margin-Bold-L" style="fill:none;stroke:#00AEEF;stroke-width:0.5;opacity:1.0;" x1="2296.762" x2="2296.762" y1="1461.0" y2="1581.0"/>
  <line id="right-margin-Bold-L" style="fill:none;stroke:#FF3B30;stroke-width:0.5;opacity:1.0;" x1="2383.192" x2="2383.192" y1="1461.0" y2="1581.0"/>
  <line id="left-margin-Heavy-S" style="fill:none;stroke:#00AEEF;stroke-width:0.5;opacity:1.0;" x1="2609.870" x2="2609.870" y1="601.0" y2="721.0"/>
  <line id="right-margin-Heavy-S" style="fill:none;stroke:#FF3B30;stroke-width:0.5;opacity:1.0;" x1="2663.506" x2="2663.506" y1="601.0" y2="721.0"/>
  <line id="left-margin-Heavy-M" style="fill:none;stroke:#00AEEF;stroke-width:0.5;opacity:1.0;" x1="2602.438" x2="2602.438" y1="1031.0" y2="1151.0"/>
  <line id="right-margin-Heavy-M" style="fill:none;stroke:#FF3B30;stroke-width:0.5;opacity:1.0;" x1="2670.938" x2="2670.938" y1="1031.0" y2="1151.0"/>
  <line id="left-margin-Heavy-L" style="fill:none;stroke:#00AEEF;stroke-width:0.5;opacity:1.0;" x1="2592.505" x2="2592.505" y1="1461.0" y2="1581.0"/>
  <line id="right-margin-Heavy-L" style="fill:none;stroke:#FF3B30;stroke-width:0.5;opacity:1.0;" x1="2680.871" x2="2680.871" y1="1461.0" y2="1581.0"/>
  <line id="left-margin-Black-S" style="fill:none;stroke:#00AEEF;stroke-width:0.5;opacity:1.0;" x1="2905.994" x2="2905.994" y1="601.0" y2="721.0"/>
  <line id="right-margin-Black-S" style="fill:none;stroke:#FF3B30;stroke-width:0.5;opacity:1.0;" x1="2960.804" x2="2960.804" y1="601.0" y2="721.0"/>
  <line id="left-margin-Black-M" style="fill:none;stroke:#00AEEF;stroke-width:0.5;opacity:1.0;" x1="2898.399" x2="2898.399" y1="1031.0" y2="1151.0"/>
  <line id="right-margin-Black-M" style="fill:none;stroke:#FF3B30;stroke-width:0.5;opacity:1.0;" x1="2968.399" x2="2968.399" y1="1031.0" y2="1151.0"/>
  <line id="left-margin-Black-L" style="fill:none;stroke:#00AEEF;stroke-width:0.5;opacity:1.0;" x1="2888.249" x2="2888.249" y1="1461.0" y2="1581.0"/>
  <line id="right-margin-Black-L" style="fill:none;stroke:#FF3B30;stroke-width:0.5;opacity:1.0;" x1="2978.549" x2="2978.549" y1="1461.0" y2="1581.0"/>
 </g>
 <g id="Symbols">
  <g id="Ultralight-S" transform="matrix(1 0 0 1 537.298 696)">
   <path class="monochrome-0 multicolor-0:labelColor hierarchical-0:primary SFSymbolsPreviewWireframe" d="M0.881,-69.388 L43.946,-69.388 Q44.827,-69.388 44.827,-68.507 Q44.827,-67.627 43.946,-67.627 L40.881,-67.627 Q40.192,-57.908 24.282,-49.011 Q25.187,-48.548 26.137,-48.087 Q40.912,-40.908 40.912,-35.23 Q40.912,-29.552 26.137,-22.373 Q25.187,-21.912 24.282,-21.449 Q40.192,-12.552 40.881,-2.833 L43.946,-2.833 Q44.827,-2.833 44.827,-1.952 Q44.827,-1.072 43.946,-1.072 L0.881,-1.072 Q0,-1.072 0,-1.952 Q0,-2.833 0.881,-2.833 L3.946,-2.833 Q4.635,-12.552 20.545,-21.449 Q19.639,-21.912 18.69,-22.373 Q3.915,-29.552 3.915,-35.23 Q3.915,-40.908 18.69,-48.087 Q19.639,-48.548 20.545,-49.011 Q4.635,-57.908 3.946,-67.627 L0.881,-67.627 Q0,-67.627 0,-68.507 Q0,-69.388 0.881,-69.388 Z M22.413,-47.996 Q20.991,-47.246 19.46,-46.502 Q5.677,-39.805 5.677,-35.23 Q5.677,-30.655 19.46,-23.958 Q20.82,-23.297 22.094,-22.632 C22.3,-23.156 22.413,-23.699 22.413,-24.268 C22.413,-23.699 22.526,-23.156 22.733,-22.632 Q24.007,-23.297 25.367,-23.958 Q39.15,-30.655 39.15,-35.23 Q39.15,-39.805 25.367,-46.502 Q23.835,-47.246 22.413,-47.996 Z M5.713,-67.627 Q6.455,-58.609 22.413,-49.992 Q38.371,-58.609 39.114,-67.627 L5.713,-67.627 Z M6.753,-4.693 C7.888,-10.593 12.969,-14.126 17.04,-17.273 Q6.318,-10.186 5.713,-2.833 L39.114,-2.833 Q38.508,-10.186 27.787,-17.273 C31.858,-14.126 36.939,-10.593 38.073,-4.693 Z"/>
  </g>
  <g id="Ultralight-M" transform="matrix(1 0 0 1 531.086 1126)">
   <path class="monochrome-0 multicolor-0:labelColor hierarchical-0:primary SFSymbolsPreviewWireframe" d="M1.125,-78.855 L56.125,-78.855 Q57.25,-78.855 57.25,-77.73 Q57.25,-76.605 56.125,-76.605 L52.21,-76.605 Q51.331,-64.192 31.011,-52.83 Q32.168,-52.239 33.38,-51.65 Q52.25,-42.482 52.25,-35.23 Q52.25,-27.978 33.38,-18.81 Q32.168,-18.221 31.011,-17.63 Q51.331,-6.268 52.21,6.145 L56.125,6.145 Q57.25,6.145 57.25,7.27 Q57.25,8.395 56.125,8.395 L1.125,8.395 Q0,8.395 0,7.27 Q0,6.145 1.125,6.145 L5.04,6.145 Q5.919,-6.268 26.239,-17.63 Q25.082,-18.221 23.87,-18.81 Q5,-27.978 5,-35.23 Q5,-42.482 23.87,-51.65 Q25.082,-52.239 26.239,-52.83 Q5.919,-64.192 5.04,-76.605 L1.125,-76.605 Q0,-76.605 0,-77.73 Q0,-78.855 1.125,-78.855 Z M28.625,-51.534 Q26.809,-50.577 24.853,-49.626 Q7.25,-41.073 7.25,-35.23 Q7.25,-29.387 24.853,-20.834 Q26.59,-19.99 28.216,-19.14 C28.481,-19.81 28.625,-20.504 28.625,-21.23 C28.625,-20.504 28.769,-19.81 29.034,-19.14 Q30.66,-19.99 32.397,-20.834 Q50,-29.387 50,-35.23 Q50,-41.073 32.397,-49.626 Q30.441,-50.577 28.625,-51.534 Z M7.296,-76.605 Q8.244,-65.088 28.625,-54.083 Q49.006,-65.088 49.954,-76.605 L7.296,-76.605 Z M8.625,3.77 C10.074,-3.765 16.563,-8.277 21.762,-12.296 Q8.069,-3.245 7.296,6.145 L49.954,6.145 Q49.181,-3.245 35.488,-12.296 C40.687,-8.277 47.176,-3.765 48.625,3.77 Z"/>
  </g>
  <g id="Ultralight-L" transform="matrix(1 0 0 1 522.785 1556)">
   <path class="monochrome-0 multicolor-0:labelColor hierarchical-0:primary SFSymbolsPreviewWireframe" d="M1.451,-91.506 L72.401,-91.506 Q73.852,-91.506 73.852,-90.055 Q73.852,-88.604 72.401,-88.604 L67.351,-88.604 Q66.217,-72.591 40.005,-57.934 Q41.496,-57.172 43.061,-56.412 Q67.402,-44.584 67.402,-35.23 Q67.402,-25.876 43.061,-14.048 Q41.496,-13.288 40.005,-12.526 Q66.217,2.132 67.351,18.144 L72.401,18.144 Q73.852,18.144 73.852,19.595 Q73.852,21.046 72.401,21.046 L1.451,21.046 Q0,21.046 0,19.595 Q0,18.144 1.451,18.144 L6.501,18.144 Q7.636,2.131 33.848,-12.526 Q32.356,-13.288 30.792,-14.048 Q6.45,-25.876 6.45,-35.23 Q6.45,-44.584 30.792,-56.412 Q32.356,-57.172 33.848,-57.934 Q7.636,-72.591 6.501,-88.604 L1.451,-88.604 Q0,-88.604 0,-90.055 Q0,-91.506 1.451,-91.506 Z M36.926,-56.263 Q34.583,-55.027 32.06,-53.801 Q9.352,-42.768 9.352,-35.23 Q9.352,-27.692 32.06,-16.659 Q34.301,-15.57 36.399,-14.474 C36.74,-15.338 36.926,-16.233 36.926,-17.17 C36.926,-16.233 37.112,-15.338 37.453,-14.474 Q39.552,-15.57 41.792,-16.659 Q64.5,-27.692 64.5,-35.23 Q64.5,-42.768 41.792,-53.801 Q39.269,-55.027 36.926,-56.263 Z M9.412,-88.604 Q10.635,-73.747 36.926,-59.55 Q63.217,-73.747 64.44,-88.604 L9.412,-88.604 Z M11.126,15.08 C12.996,5.359 21.366,-0.46 28.073,-5.645 Q10.409,6.03 9.412,18.144 L64.44,18.144 Q63.443,6.03 45.779,-5.645 C52.486,-0.46 60.857,5.359 62.726,15.08 Z"/>
  </g>
  <g id="Thin-S" transform="matrix(1 0 0 1 833.519 696)">
   <path class="monochrome-0 multicolor-0:labelColor hierarchical-0:primary SFSymbolsPreviewWireframe" d="M1.37,-69.878 L44.435,-69.878 Q45.806,-69.878 45.806,-68.507 Q45.806,-67.137 44.435,-67.137 L41.818,-67.137 Q40.81,-57.658 25.807,-49.036 Q26.317,-48.781 26.84,-48.527 Q41.891,-41.214 41.891,-35.23 Q41.891,-29.246 26.84,-21.933 Q26.317,-21.679 25.807,-21.424 Q40.81,-12.802 41.818,-3.323 L44.435,-3.323 Q45.806,-3.323 45.806,-1.952 Q45.806,-0.582 44.435,-0.582 L1.37,-0.582 Q0,-0.582 0,-1.952 Q0,-3.323 1.37,-3.323 L3.988,-3.323 Q4.996,-12.802 19.999,-21.424 Q19.489,-21.679 18.965,-21.933 Q3.915,-29.246 3.915,-35.23 Q3.915,-41.214 18.965,-48.527 Q19.489,-48.781 19.999,-49.036 Q4.996,-57.658 3.988,-67.137 L1.37,-67.137 Q0,-67.137 0,-68.507 Q0,-69.878 1.37,-69.878 Z M22.903,-47.444 Q21.579,-46.75 20.163,-46.062 Q6.656,-39.499 6.656,-35.23 Q6.656,-30.961 20.163,-24.398 Q21.493,-23.752 22.741,-23.101 C22.847,-23.479 22.903,-23.867 22.903,-24.268 C22.903,-23.867 22.959,-23.479 23.065,-23.101 Q24.313,-23.752 25.642,-24.398 Q39.15,-30.961 39.15,-35.23 Q39.15,-39.499 25.642,-46.062 Q24.226,-46.75 22.903,-47.444 Z M6.747,-67.137 Q7.877,-58.717 22.903,-50.548 Q37.929,-58.717 39.058,-67.137 L6.747,-67.137 Z M7.243,-4.693 C7.409,-5.558 7.66,-6.372 7.981,-7.142 Q7.004,-5.239 6.747,-3.323 L39.058,-3.323 Q38.801,-5.239 37.825,-7.142 C38.145,-6.372 38.396,-5.558 38.563,-4.693 Z"/>
  </g>
  <g id="Thin-M" transform="matrix(1 0 0 1 827.172 1126)">
   <path class="monochrome-0 multicolor-0:labelColor hierarchical-0:primary SFSymbolsPreviewWireframe" d="M1.75,-79.48 L56.75,-79.48 Q58.5,-79.48 58.5,-77.73 Q58.5,-75.98 56.75,-75.98 L53.407,-75.98 Q52.12,-63.874 32.959,-52.862 Q33.61,-52.537 34.279,-52.212 Q53.5,-42.873 53.5,-35.23 Q53.5,-27.587 34.279,-18.248 Q33.61,-17.923 32.959,-17.598 Q52.12,-6.586 53.407,5.52 L56.75,5.52 Q58.5,5.52 58.5,7.27 Q58.5,9.02 56.75,9.02 L1.75,9.02 Q0,9.02 0,7.27 Q0,5.52 1.75,5.52 L5.093,5.52 Q6.38,-6.586 25.541,-17.598 Q24.89,-17.923 24.221,-18.248 Q5,-27.587 5,-35.23 Q5,-42.873 24.221,-52.212 Q24.89,-52.537 25.541,-52.862 Q6.38,-63.874 5.093,-75.98 L1.75,-75.98 Q0,-75.98 0,-77.73 Q0,-79.48 1.75,-79.48 Z M29.25,-50.829 Q27.56,-49.943 25.751,-49.064 Q8.5,-40.682 8.5,-35.23 Q8.5,-29.778 25.751,-21.396 Q27.449,-20.571 29.043,-19.739 C29.178,-20.222 29.25,-20.718 29.25,-21.23 C29.25,-20.718 29.322,-20.222 29.457,-19.739 Q31.051,-20.571 32.749,-21.396 Q50,-29.778 50,-35.23 Q50,-40.682 32.749,-49.064 Q30.94,-49.943 29.25,-50.829 Z M8.617,-75.98 Q10.059,-65.226 29.25,-54.793 Q48.441,-65.226 49.883,-75.98 L8.617,-75.98 Z M9.25,3.77 C9.462,2.665 9.783,1.625 10.192,0.643 Q8.945,3.073 8.617,5.52 L49.883,5.52 Q49.555,3.073 48.308,0.643 C48.717,1.625 49.038,2.665 49.25,3.77 Z"/>
  </g>
  <g id="Thin-L" transform="matrix(1 0 0 1 818.689 1556)">
   <path class="monochrome-0 multicolor-0:labelColor hierarchical-0:primary SFSymbolsPreviewWireframe" d="M2.257,-92.312 L73.208,-92.312 Q75.465,-92.312 75.465,-90.055 Q75.465,-87.798 73.208,-87.798 L68.895,-87.798 Q67.234,-72.18 42.517,-57.976 Q43.357,-57.556 44.219,-57.137 Q69.015,-45.089 69.015,-35.23 Q69.015,-25.371 44.219,-13.323 Q43.357,-12.904 42.517,-12.484 Q67.234,1.72 68.895,17.338 L73.208,17.338 Q75.465,17.338 75.465,19.595 Q75.465,21.853 73.208,21.853 L2.257,21.853 Q0,21.853 0,19.595 Q0,17.338 2.257,17.338 L6.57,17.338 Q8.231,1.72 32.948,-12.484 Q32.108,-12.904 31.246,-13.323 Q6.45,-25.371 6.45,-35.23 Q6.45,-45.089 31.246,-57.137 Q32.108,-57.556 32.948,-57.976 Q8.231,-72.18 6.57,-87.798 L2.257,-87.798 Q0,-87.798 0,-90.055 Q0,-92.312 2.257,-92.312 Z M37.733,-55.352 Q35.552,-54.21 33.219,-53.076 Q10.965,-42.263 10.965,-35.23 Q10.965,-28.197 33.219,-17.384 Q35.409,-16.32 37.466,-15.247 C37.64,-15.87 37.732,-16.509 37.732,-17.17 C37.732,-16.509 37.825,-15.87 37.999,-15.247 Q40.056,-16.32 42.246,-17.384 Q64.5,-28.197 64.5,-35.23 Q64.5,-42.263 42.246,-53.076 Q39.913,-54.21 37.733,-55.352 Z M11.116,-87.798 Q12.977,-73.924 37.732,-60.466 Q62.488,-73.924 64.349,-87.798 L11.116,-87.798 Z M11.932,15.08 C12.207,13.655 12.62,12.313 13.148,11.046 Q11.54,14.181 11.116,17.338 L64.349,17.338 Q63.925,14.181 62.317,11.046 C62.845,12.313 63.258,13.655 63.532,15.08 Z"/>
  </g>
  <g id="Light-S" transform="matrix(1 0 0 1 1129.447 696)">
   <path class="monochrome-0 multicolor-0:labelColor hierarchical-0:primary SFSymbolsPreviewWireframe" d="M2.153,-70.661 L45.218,-70.661 Q47.371,-70.661 47.371,-68.507 Q47.371,-66.354 45.218,-66.354 L43.287,-66.354 Q41.85,-57.285 28.238,-49.098 Q43.456,-41.647 43.456,-35.23 Q43.456,-28.813 28.238,-21.362 Q41.85,-13.175 43.287,-4.106 L45.218,-4.106 Q47.371,-4.106 47.371,-1.952 Q47.371,0.201 45.218,0.201 L2.153,0.201 Q0,0.201 0,-1.952 Q0,-4.106 2.153,-4.106 L4.085,-4.106 Q5.522,-13.175 19.134,-21.362 Q3.915,-28.813 3.915,-35.23 Q3.915,-41.647 19.134,-49.098 Q5.522,-57.285 4.085,-66.354 L2.153,-66.354 Q0,-66.354 0,-68.507 Q0,-70.661 2.153,-70.661 Z M23.686,-46.561 Q22.521,-45.957 21.288,-45.358 Q8.222,-39.009 8.222,-35.23 Q8.222,-31.451 21.288,-25.102 Q22.513,-24.507 23.67,-23.907 C23.681,-24.026 23.686,-24.146 23.686,-24.268 C23.686,-24.146 23.691,-24.026 23.701,-23.907 Q24.858,-24.507 26.083,-25.102 Q39.15,-31.451 39.15,-35.23 Q39.15,-39.009 26.083,-45.358 Q24.85,-45.957 23.686,-46.561 Z M8.466,-66.354 Q10.165,-58.87 23.686,-51.439 Q37.206,-58.87 38.906,-66.354 L8.466,-66.354 Z M38.754,-4.693 L8.617,-4.693 Q8.533,-4.399 8.466,-4.106 L38.906,-4.106 Q38.839,-4.399 38.754,-4.693 Z"/>
  </g>
  <g id="Light-M" transform="matrix(1 0 0 1 1122.883 1126)">
   <path class="monochrome-0 multicolor-0:labelColor hierarchical-0:primary SFSymbolsPreviewWireframe" d="M2.75,-80.48 L57.75,-80.48 Q60.5,-80.48 60.5,-77.73 Q60.5,-74.98 57.75,-74.98 L55.283,-74.98 Q53.448,-63.397 36.064,-52.942 Q55.5,-43.426 55.5,-35.23 Q55.5,-27.034 36.064,-17.518 Q53.448,-7.063 55.283,4.52 L57.75,4.52 Q60.5,4.52 60.5,7.27 Q60.5,10.02 57.75,10.02 L2.75,10.02 Q0,10.02 0,7.27 Q0,4.52 2.75,4.52 L5.217,4.52 Q7.052,-7.063 24.436,-17.518 Q5,-27.034 5,-35.23 Q5,-43.426 24.436,-52.942 Q7.052,-63.397 5.217,-74.98 L2.75,-74.98 Q0,-74.98 0,-77.73 Q0,-80.48 2.75,-80.48 Z M30.25,-49.701 Q28.763,-48.93 27.188,-48.165 Q10.5,-40.056 10.5,-35.23 Q10.5,-30.404 27.188,-22.295 Q28.753,-21.535 30.23,-20.769 C30.243,-20.921 30.25,-21.075 30.25,-21.23 C30.25,-21.075 30.257,-20.921 30.27,-20.769 Q31.747,-21.535 33.312,-22.295 Q50,-30.404 50,-35.23 Q50,-40.056 33.312,-48.165 Q31.737,-48.93 30.25,-49.701 Z M10.812,-74.98 Q12.983,-65.421 30.25,-55.931 Q47.517,-65.421 49.688,-74.98 L10.812,-74.98 Z M49.494,3.77 L11.006,3.77 Q10.897,4.145 10.812,4.52 L49.688,4.52 Q49.603,4.145 49.494,3.77 Z"/>
  </g>
  <g id="Light-L" transform="matrix(1 0 0 1 1114.111 1556)">
   <path class="monochrome-0 multicolor-0:labelColor hierarchical-0:primary SFSymbolsPreviewWireframe" d="M3.548,-93.602 L74.497,-93.602 Q78.045,-93.602 78.045,-90.055 Q78.045,-86.507 74.497,-86.507 L71.316,-86.507 Q68.948,-71.566 46.522,-58.078 Q71.595,-45.802 71.595,-35.23 Q71.595,-24.658 46.522,-12.382 Q68.948,1.106 71.316,16.048 L74.497,16.048 Q78.045,16.048 78.045,19.595 Q78.045,23.142 74.497,23.142 L3.548,23.142 Q0,23.142 0,19.595 Q0,16.048 3.548,16.048 L6.729,16.048 Q9.097,1.106 31.523,-12.382 Q6.45,-24.658 6.45,-35.23 Q6.45,-45.802 31.523,-58.078 Q9.097,-71.566 6.729,-86.507 L3.548,-86.507 Q0,-86.507 0,-90.055 Q0,-93.602 3.548,-93.602 Z M39.022,-53.898 Q37.104,-52.903 35.073,-51.916 Q13.545,-41.456 13.545,-35.23 Q13.545,-29.004 35.073,-18.544 Q37.091,-17.564 38.997,-16.575 C39.014,-16.772 39.022,-16.97 39.022,-17.17 C39.022,-16.97 39.031,-16.772 39.048,-16.575 Q40.954,-17.564 42.972,-18.544 Q64.5,-29.004 64.5,-35.23 Q64.5,-41.456 42.972,-51.916 Q40.941,-52.903 39.022,-53.898 Z M13.948,-86.507 Q16.748,-74.177 39.022,-61.934 Q61.297,-74.177 64.097,-86.507 L13.948,-86.507 Z M63.848,15.08 L14.197,15.08 Q14.057,15.564 13.948,16.048 L64.097,16.048 Q63.988,15.564 63.848,15.08 Z"/>
  </g>
  <g id="Regular-S" transform="matrix(1 0 0 1 1425.180 696)">
   <path class="monochrome-0 multicolor-0:labelColor hierarchical-0:primary SFSymbolsPreviewWireframe" d="M3.132,-71.639 L46.197,-71.639 Q49.329,-71.639 49.329,-68.507 Q49.329,-65.375 46.197,-65.375 L45.078,-65.375 Q43.229,-56.846 31.218,-49.189 Q45.414,-41.897 45.414,-35.23 Q45.414,-28.563 31.218,-21.271 Q43.229,-13.614 45.078,-5.084 L46.197,-5.084 Q49.329,-5.084 49.329,-1.952 Q49.329,1.179 46.197,1.179 L3.132,1.179 Q0,1.179 0,-1.952 Q0,-5.084 3.132,-5.084 L4.251,-5.084 Q6.1,-13.614 18.111,-21.271 Q3.915,-28.563 3.915,-35.23 Q3.915,-41.897 18.111,-49.189 Q6.1,-56.846 4.251,-65.375 L3.132,-65.375 Q0,-65.375 0,-68.507 Q0,-71.639 3.132,-71.639 Z M24.665,-45.46 Q23.702,-44.967 22.695,-44.477 Q10.179,-38.396 10.179,-35.23 Q10.179,-32.064 22.695,-25.983 Q23.702,-25.493 24.665,-25 Q25.627,-25.493 26.634,-25.983 Q39.15,-32.064 39.15,-35.23 Q39.15,-38.396 26.634,-44.477 Q25.627,-44.967 24.665,-45.46 Z M10.748,-65.375 Q13.051,-59.027 24.664,-52.555 Q36.278,-59.027 38.581,-65.375 L10.748,-65.375 Z"/>
  </g>
  <g id="Regular-M" transform="matrix(1 0 0 1 1418.344 1126)">
   <path class="monochrome-0 multicolor-0:labelColor hierarchical-0:primary SFSymbolsPreviewWireframe" d="M4,-81.73 L59,-81.73 Q63,-81.73 63,-77.73 Q63,-73.73 59,-73.73 L57.571,-73.73 Q55.21,-62.837 39.87,-53.058 Q58,-43.744 58,-35.23 Q58,-26.716 39.87,-17.402 Q55.21,-7.623 57.571,3.27 L59,3.27 Q63,3.27 63,7.27 Q63,11.27 59,11.27 L4,11.27 Q0,11.27 0,7.27 Q0,3.27 4,3.27 L5.429,3.27 Q7.79,-7.623 23.13,-17.402 Q5,-26.716 5,-35.23 Q5,-43.744 23.13,-53.058 Q7.79,-62.837 5.429,-73.73 L4,-73.73 Q0,-73.73 0,-77.73 Q0,-81.73 4,-81.73 Z M31.5,-48.295 Q30.271,-47.665 28.984,-47.04 Q13,-39.274 13,-35.23 Q13,-31.186 28.984,-23.42 Q30.271,-22.795 31.5,-22.165 Q32.729,-22.795 34.016,-23.42 Q50,-31.186 50,-35.23 Q50,-39.274 34.016,-47.04 Q32.729,-47.665 31.5,-48.295 Z M13.727,-73.73 Q16.668,-65.622 31.5,-57.357 Q46.332,-65.622 49.273,-73.73 L13.727,-73.73 Z"/>
  </g>
  <g id="Regular-L" transform="matrix(1 0 0 1 1409.209 1556)">
   <path class="monochrome-0 multicolor-0:labelColor hierarchical-0:primary SFSymbolsPreviewWireframe" d="M5.16,-95.215 L76.11,-95.215 Q81.27,-95.215 81.27,-90.055 Q81.27,-84.895 76.11,-84.895 L74.266,-84.895 Q71.221,-70.842 51.433,-58.228 Q74.82,-46.213 74.82,-35.23 Q74.82,-24.247 51.433,-12.232 Q71.221,0.382 74.266,14.435 L76.11,14.435 Q81.27,14.435 81.27,19.595 Q81.27,24.755 76.11,24.755 L5.16,24.755 Q0,24.755 0,19.595 Q0,14.435 5.16,14.435 L7.004,14.435 Q10.049,0.382 29.837,-12.232 Q6.45,-24.247 6.45,-35.23 Q6.45,-46.213 29.837,-58.228 Q10.049,-70.842 7.004,-84.895 L5.16,-84.895 Q0,-84.895 0,-90.055 Q0,-95.215 5.16,-95.215 Z M40.635,-52.084 Q39.049,-51.272 37.39,-50.465 Q16.77,-40.446 16.77,-35.23 Q16.77,-30.014 37.39,-19.995 Q39.049,-19.188 40.635,-18.376 Q42.221,-19.188 43.88,-19.995 Q64.5,-30.014 64.5,-35.23 Q64.5,-40.446 43.88,-50.465 Q42.221,-51.272 40.635,-52.084 Z M17.708,-84.895 Q21.501,-74.436 40.635,-63.773 Q59.769,-74.436 63.562,-84.895 L17.708,-84.895 Z"/>
  </g>
  <g id="Medium-S" transform="matrix(1 0 0 1 1721.401 696)">
   <path class="monochrome-0 multicolor-0:labelColor hierarchical-0:primary SFSymbolsPreviewWireframe" d="M3.621,-72.129 L46.686,-72.129 Q50.308,-72.129 50.308,-68.507 Q50.308,-64.886 46.686,-64.886 L45.957,-64.886 Q43.948,-56.633 32.678,-49.236 Q46.393,-42.008 46.393,-35.23 Q46.393,-28.452 32.678,-21.224 Q43.948,-13.827 45.957,-5.574 L46.686,-5.574 Q50.308,-5.574 50.308,-1.952 Q50.308,1.669 46.686,1.669 L3.621,1.669 Q0,1.669 0,-1.952 Q0,-5.574 3.621,-5.574 L4.351,-5.574 Q6.36,-13.827 17.63,-21.224 Q3.915,-28.452 3.915,-35.23 Q3.915,-42.008 17.63,-49.236 Q6.36,-56.633 4.351,-64.886 L3.621,-64.886 Q0,-64.886 0,-68.507 Q0,-72.129 3.621,-72.129 Z M25.154,-44.911 Q24.293,-44.472 23.398,-44.037 Q11.158,-38.09 11.158,-35.23 Q11.158,-32.37 23.398,-26.423 Q24.293,-25.988 25.154,-25.549 Q26.014,-25.988 26.91,-26.423 Q39.15,-32.37 39.15,-35.23 Q39.15,-38.09 26.91,-44.037 Q26.014,-44.472 25.154,-44.911 Z M11.957,-64.886 Q14.503,-59.092 25.154,-53.114 Q35.805,-59.092 38.351,-64.886 L11.957,-64.886 Z"/>
  </g>
  <g id="Medium-M" transform="matrix(1 0 0 1 1714.430 1126)">
   <path class="monochrome-0 multicolor-0:labelColor hierarchical-0:primary SFSymbolsPreviewWireframe" d="M4.625,-82.355 L59.625,-82.355 Q64.25,-82.355 64.25,-77.73 Q64.25,-73.105 59.625,-73.105 L58.693,-73.105 Q56.127,-62.565 41.734,-53.117 Q59.25,-43.886 59.25,-35.23 Q59.25,-26.574 41.734,-17.343 Q56.127,-7.895 58.693,2.645 L59.625,2.645 Q64.25,2.645 64.25,7.27 Q64.25,11.895 59.625,11.895 L4.625,11.895 Q0,11.895 0,7.27 Q0,2.645 4.625,2.645 L5.557,2.645 Q8.123,-7.895 22.516,-17.343 Q5,-26.574 5,-35.23 Q5,-43.886 22.516,-53.117 Q8.123,-62.565 5.557,-73.105 L4.625,-73.105 Q0,-73.105 0,-77.73 Q0,-82.355 4.625,-82.355 Z M32.125,-47.594 Q31.026,-47.034 29.883,-46.478 Q14.25,-38.883 14.25,-35.23 Q14.25,-31.577 29.882,-23.982 Q31.026,-23.426 32.125,-22.866 Q33.224,-23.426 34.368,-23.982 Q50,-31.577 50,-35.23 Q50,-38.883 34.367,-46.478 Q33.224,-47.034 32.125,-47.594 Z M15.271,-73.105 Q18.522,-65.705 32.125,-58.071 Q45.728,-65.705 48.979,-73.105 L15.271,-73.105 Z"/>
  </g>
  <g id="Medium-L" transform="matrix(1 0 0 1 1705.114 1556)">
   <path class="monochrome-0 multicolor-0:labelColor hierarchical-0:primary SFSymbolsPreviewWireframe" d="M5.966,-96.021 L76.916,-96.021 Q82.882,-96.021 82.882,-90.055 Q82.882,-84.089 76.916,-84.089 L75.714,-84.089 Q72.404,-70.492 53.837,-58.305 Q76.432,-46.397 76.432,-35.23 Q76.432,-24.063 53.837,-12.155 Q72.404,0.032 75.714,13.629 L76.916,13.629 Q82.882,13.629 82.882,19.595 Q82.882,25.561 76.916,25.561 L5.966,25.561 Q0,25.561 0,19.595 Q0,13.629 5.966,13.629 L7.168,13.629 Q10.478,0.032 29.045,-12.155 Q6.45,-24.063 6.45,-35.23 Q6.45,-46.397 29.045,-58.305 Q10.478,-70.492 7.168,-84.089 L5.966,-84.089 Q0,-84.089 0,-90.055 Q0,-96.021 5.966,-96.021 Z M41.441,-51.179 Q40.024,-50.457 38.548,-49.74 Q18.383,-39.942 18.383,-35.23 Q18.383,-30.518 38.548,-20.72 Q40.023,-20.003 41.441,-19.281 Q42.859,-20.003 44.334,-20.72 Q64.5,-30.518 64.5,-35.23 Q64.5,-39.942 44.334,-49.74 Q42.859,-50.457 41.441,-51.179 Z M19.7,-84.089 Q23.893,-74.543 41.441,-64.695 Q58.989,-74.543 63.183,-84.089 L19.7,-84.089 Z"/>
  </g>
  <g id="Semibold-S" transform="matrix(1 0 0 1 2017.623 696)">
   <path class="monochrome-0 multicolor-0:labelColor hierarchical-0:primary SFSymbolsPreviewWireframe" d="M4.111,-72.618 L47.176,-72.618 Q51.286,-72.618 51.286,-68.507 Q51.286,-64.397 47.176,-64.397 L46.826,-64.397 Q44.683,-56.424 34.118,-49.283 Q47.371,-42.111 47.371,-35.23 Q47.371,-28.349 34.118,-21.177 Q44.683,-14.036 46.826,-6.063 L47.176,-6.063 Q51.286,-6.063 51.286,-1.952 Q51.286,2.158 47.176,2.158 L4.111,2.158 Q0,2.158 0,-1.952 Q0,-6.063 4.111,-6.063 L4.46,-6.063 Q6.603,-14.036 17.169,-21.177 Q3.915,-28.349 3.915,-35.23 Q3.915,-42.111 17.169,-49.283 Q6.603,-56.424 4.46,-64.397 L4.111,-64.397 Q0,-64.397 0,-68.507 Q0,-72.618 4.111,-72.618 Z M25.643,-44.362 Q24.885,-43.978 24.101,-43.597 Q12.137,-37.784 12.137,-35.23 Q12.137,-32.676 24.101,-26.863 Q24.886,-26.482 25.643,-26.098 Q26.401,-26.482 27.185,-26.863 Q39.15,-32.676 39.15,-35.23 Q39.15,-37.784 27.185,-43.597 Q26.401,-43.978 25.643,-44.362 Z M13.219,-64.397 Q15.96,-59.147 25.643,-53.674 Q35.327,-59.147 38.068,-64.397 L13.219,-64.397 Z"/>
  </g>
  <g id="Semibold-M" transform="matrix(1 0 0 1 2010.516 1126)">
   <path class="monochrome-0 multicolor-0:labelColor hierarchical-0:primary SFSymbolsPreviewWireframe" d="M5.25,-82.98 L60.25,-82.98 Q65.5,-82.98 65.5,-77.73 Q65.5,-72.48 60.25,-72.48 L59.804,-72.48 Q57.067,-62.298 43.573,-53.177 Q60.5,-44.018 60.5,-35.23 Q60.5,-26.442 43.573,-17.283 Q57.067,-8.162 59.804,2.02 L60.25,2.02 Q65.5,2.02 65.5,7.27 Q65.5,12.52 60.25,12.52 L5.25,12.52 Q0,12.52 0,7.27 Q0,2.02 5.25,2.02 L5.696,2.02 Q8.433,-8.162 21.927,-17.283 Q5,-26.442 5,-35.23 Q5,-44.018 21.927,-53.177 Q8.433,-62.298 5.696,-72.48 L5.25,-72.48 Q0,-72.48 0,-77.73 Q0,-82.98 5.25,-82.98 Z M32.75,-46.893 Q31.782,-46.403 30.781,-45.916 Q15.5,-38.491 15.5,-35.23 Q15.5,-31.969 30.781,-24.544 Q31.782,-24.057 32.75,-23.567 Q33.718,-24.057 34.719,-24.544 Q50,-31.969 50,-35.23 Q50,-38.491 34.719,-45.916 Q33.718,-46.403 32.75,-46.893 Z M16.882,-72.48 Q20.383,-65.776 32.75,-58.786 Q45.117,-65.776 48.618,-72.48 L16.882,-72.48 Z"/>
  </g>
  <g id="Semibold-L" transform="matrix(1 0 0 1 2001.019 1556)">
   <path class="monochrome-0 multicolor-0:labelColor hierarchical-0:primary SFSymbolsPreviewWireframe" d="M6.772,-96.827 L77.723,-96.827 Q84.495,-96.827 84.495,-90.055 Q84.495,-83.283 77.723,-83.283 L77.147,-83.283 Q73.616,-70.147 56.209,-58.382 Q78.045,-46.567 78.045,-35.23 Q78.045,-23.893 56.209,-12.078 Q73.616,-0.313 77.147,12.823 L77.723,12.823 Q84.495,12.823 84.495,19.595 Q84.495,26.368 77.723,26.368 L6.772,26.368 Q0,26.368 0,19.595 Q0,12.823 6.772,12.823 L7.348,12.823 Q10.879,-0.313 28.286,-12.078 Q6.45,-23.893 6.45,-35.23 Q6.45,-46.567 28.286,-58.382 Q10.879,-70.147 7.348,-83.283 L6.772,-83.283 Q0,-83.283 0,-90.055 Q0,-96.827 6.772,-96.827 Z M42.248,-50.275 Q40.999,-49.643 39.707,-49.015 Q19.995,-39.437 19.995,-35.23 Q19.995,-31.023 39.707,-21.445 Q40.999,-20.817 42.248,-20.185 Q43.496,-20.817 44.788,-21.445 Q64.5,-31.023 64.5,-35.23 Q64.5,-39.437 44.788,-49.015 Q43.496,-49.643 42.248,-50.275 Z M21.778,-83.283 Q26.294,-74.634 42.247,-65.617 Q58.201,-74.634 62.717,-83.283 L21.778,-83.283 Z"/>
  </g>
  <g id="Bold-S" transform="matrix(1 0 0 1 2313.746 696)">
   <path class="monochrome-0 multicolor-0:labelColor hierarchical-0:primary SFSymbolsPreviewWireframe" d="M4.698,-73.205 L47.763,-73.205 Q52.461,-73.205 52.461,-68.507 Q52.461,-63.857 47.858,-63.81 Q45.587,-56.177 35.819,-49.339 Q48.546,-42.226 48.546,-35.23 Q48.546,-28.234 35.819,-21.121 Q45.587,-14.283 47.858,-6.65 Q52.461,-6.603 52.461,-1.952 Q52.461,2.746 47.763,2.746 L4.698,2.746 Q0,2.746 0,-1.952 Q0,-6.603 4.603,-6.65 Q6.874,-14.283 16.642,-21.121 Q3.915,-28.234 3.915,-35.23 Q3.915,-42.226 16.642,-49.339 Q6.874,-56.177 4.603,-63.81 Q0,-63.857 0,-68.507 Q0,-73.205 4.698,-73.205 Z M26.231,-43.704 Q25.597,-43.386 24.945,-43.069 Q13.311,-37.416 13.311,-35.23 Q13.311,-33.044 24.945,-27.391 Q25.597,-27.074 26.231,-26.756 Q26.864,-27.074 27.516,-27.391 Q39.15,-33.044 39.15,-35.23 Q39.15,-37.416 27.516,-43.069 Q26.864,-43.386 26.231,-43.704 Z M14.812,-63.81 Q17.714,-59.202 26.23,-54.347 Q34.747,-59.202 37.649,-63.81 L14.812,-63.81 Z"/>
  </g>
  <g id="Bold-M" transform="matrix(1 0 0 1 2306.477 1126)">
   <path class="monochrome-0 multicolor-0:labelColor hierarchical-0:primary SFSymbolsPreviewWireframe" d="M6,-83.73 L61,-83.73 Q67,-83.73 67,-77.73 Q67,-71.791 61.121,-71.731 Q58.221,-61.982 45.746,-53.249 Q62,-44.164 62,-35.23 Q62,-26.296 45.746,-17.211 Q58.221,-8.478 61.121,1.271 Q67,1.331 67,7.27 Q67,13.27 61,13.27 L6,13.27 Q0,13.27 0,7.27 Q0,1.331 5.879,1.271 Q8.779,-8.478 21.254,-17.211 Q5,-26.296 5,-35.23 Q5,-44.164 21.254,-53.249 Q8.779,-61.982 5.879,-71.731 Q0,-71.791 0,-77.73 Q0,-83.73 6,-83.73 Z M33.5,-46.053 Q32.691,-45.646 31.858,-45.241 Q17,-38.022 17,-35.23 Q17,-32.438 31.858,-25.219 Q32.691,-24.814 33.5,-24.407 Q34.309,-24.814 35.142,-25.219 Q50,-32.438 50,-35.23 Q50,-38.022 35.142,-45.241 Q34.309,-45.646 33.5,-46.053 Z M18.916,-71.73 Q22.623,-65.846 33.5,-59.645 Q44.377,-65.846 48.084,-71.73 L18.916,-71.73 Z"/>
  </g>
  <g id="Bold-L" transform="matrix(1 0 0 1 2296.762 1556)">
   <path class="monochrome-0 multicolor-0:labelColor hierarchical-0:primary SFSymbolsPreviewWireframe" d="M7.74,-97.795 L78.69,-97.795 Q86.43,-97.795 86.43,-90.055 Q86.43,-82.394 78.847,-82.316 Q75.105,-69.74 59.013,-58.474 Q79.98,-46.755 79.98,-35.23 Q79.98,-23.705 59.013,-11.986 Q75.105,-0.72 78.847,11.856 Q86.43,11.934 86.43,19.595 Q86.43,27.335 78.69,27.335 L7.74,27.335 Q0,27.335 0,19.595 Q0,11.934 7.583,11.856 Q11.325,-0.72 27.417,-11.986 Q6.45,-23.705 6.45,-35.23 Q6.45,-46.755 27.417,-58.474 Q11.325,-69.74 7.583,-82.316 Q0,-82.394 0,-90.055 Q0,-97.795 7.74,-97.795 Z M43.215,-49.191 Q42.171,-48.667 41.097,-48.145 Q21.93,-38.832 21.93,-35.23 Q21.93,-31.628 41.097,-22.315 Q42.171,-21.794 43.215,-21.269 Q44.259,-21.794 45.333,-22.315 Q64.5,-31.628 64.5,-35.23 Q64.5,-38.832 45.333,-48.145 Q44.259,-48.667 43.215,-49.191 Z M24.402,-82.315 Q29.184,-74.724 43.215,-66.726 Q57.246,-74.724 62.028,-82.315 L24.402,-82.315 Z"/>
  </g>
  <g id="Heavy-S" transform="matrix(1 0 0 1 2609.870 696)">
   <path class="monochrome-0 multicolor-0:labelColor hierarchical-0:primary SFSymbolsPreviewWireframe" d="M5.285,-73.793 L48.35,-73.793 Q53.636,-73.793 53.636,-68.507 Q53.636,-63.495 48.883,-63.236 Q46.52,-55.938 37.494,-49.394 Q49.721,-42.33 49.721,-35.23 Q49.721,-28.13 37.494,-21.066 Q46.52,-14.522 48.883,-7.224 Q53.636,-6.965 53.636,-1.952 Q53.636,3.333 48.35,3.333 L5.285,3.333 Q0,3.333 0,-1.952 Q0,-6.965 4.753,-7.224 Q7.116,-14.522 16.142,-21.066 Q3.915,-28.13 3.915,-35.23 Q3.915,-42.33 16.142,-49.394 Q7.116,-55.938 4.753,-63.236 Q0,-63.495 0,-68.507 Q0,-73.793 5.285,-73.793 Z M26.818,-43.047 Q26.309,-42.793 25.789,-42.541 Q14.486,-37.049 14.486,-35.23 Q14.486,-33.411 25.789,-27.919 Q26.309,-27.667 26.818,-27.413 Q27.326,-27.667 27.846,-27.919 Q39.15,-33.411 39.15,-35.23 Q39.15,-37.049 27.846,-42.541 Q27.326,-42.793 26.818,-43.047 Z M16.501,-63.222 Q19.471,-59.245 26.818,-55.021 Q34.164,-59.245 37.134,-63.222 L16.501,-63.222 Z"/>
  </g>
  <g id="Heavy-M" transform="matrix(1 0 0 1 2602.438 1126)">
   <path class="monochrome-0 multicolor-0:labelColor hierarchical-0:primary SFSymbolsPreviewWireframe" d="M6.75,-84.48 L61.75,-84.48 Q68.5,-84.48 68.5,-77.73 Q68.5,-71.329 62.43,-70.998 Q59.412,-61.677 47.885,-53.32 Q63.5,-44.298 63.5,-35.23 Q63.5,-26.162 47.885,-17.14 Q59.412,-8.783 62.43,0.538 Q68.5,0.869 68.5,7.27 Q68.5,14.02 61.75,14.02 L6.75,14.02 Q0,14.02 0,7.27 Q0,0.869 6.07,0.538 Q9.088,-8.783 20.615,-17.14 Q5,-26.162 5,-35.23 Q5,-44.298 20.615,-53.32 Q9.088,-61.677 6.07,-70.998 Q0,-71.329 0,-77.73 Q0,-84.48 6.75,-84.48 Z M34.25,-45.214 Q33.6,-44.89 32.936,-44.567 Q18.5,-37.553 18.5,-35.23 Q18.5,-32.907 32.936,-25.893 Q33.6,-25.57 34.25,-25.246 Q34.9,-25.57 35.564,-25.893 Q50,-32.907 50,-35.23 Q50,-37.553 35.564,-44.567 Q34.9,-44.89 34.25,-45.214 Z M21.075,-70.98 Q24.868,-65.9 34.25,-60.506 Q43.632,-65.9 47.425,-70.98 L21.075,-70.98 Z"/>
  </g>
  <g id="Heavy-L" transform="matrix(1 0 0 1 2592.505 1556)">
   <path class="monochrome-0 multicolor-0:labelColor hierarchical-0:primary SFSymbolsPreviewWireframe" d="M8.708,-98.762 L79.658,-98.762 Q88.365,-98.762 88.365,-90.055 Q88.365,-81.798 80.535,-81.371 Q76.642,-69.347 61.771,-58.566 Q81.915,-46.928 81.915,-35.23 Q81.915,-23.532 61.771,-11.894 Q76.642,-1.113 80.535,10.911 Q88.365,11.338 88.365,19.595 Q88.365,28.302 79.658,28.302 L8.708,28.302 Q0,28.302 0,19.595 Q0,11.338 7.83,10.911 Q11.723,-1.113 26.594,-11.894 Q6.45,-23.532 6.45,-35.23 Q6.45,-46.928 26.594,-58.566 Q11.723,-69.347 7.83,-81.371 Q0,-81.798 0,-90.055 Q0,-98.762 8.708,-98.762 Z M44.183,-48.109 Q43.345,-47.691 42.488,-47.275 Q23.865,-38.226 23.865,-35.23 Q23.865,-32.234 42.488,-23.185 Q43.345,-22.769 44.183,-22.351 Q45.02,-22.769 45.877,-23.185 Q64.5,-32.234 64.5,-35.23 Q64.5,-38.226 45.877,-47.275 Q45.02,-47.691 44.183,-48.109 Z M27.186,-81.347 Q32.079,-74.795 44.182,-67.836 Q56.286,-74.795 61.179,-81.347 L27.186,-81.347 Z"/>
  </g>
  <g id="Black-S" transform="matrix(1 0 0 1 2905.994 696)">
   <path class="monochrome-0 multicolor-0:labelColor hierarchical-0:primary SFSymbolsPreviewWireframe" d="M5.872,-74.38 L48.937,-74.38 Q54.81,-74.38 54.81,-68.507 Q54.81,-63.139 49.903,-62.678 Q47.48,-55.708 39.142,-49.45 Q50.895,-42.426 50.895,-35.23 Q50.895,-28.034 39.142,-21.01 Q47.48,-14.752 49.903,-7.782 Q54.81,-7.321 54.81,-1.952 Q54.81,3.92 48.937,3.92 L5.872,3.92 Q0,3.92 0,-1.952 Q0,-7.321 4.907,-7.782 Q7.33,-14.752 15.668,-21.01 Q3.915,-28.034 3.915,-35.23 Q3.915,-42.426 15.668,-49.45 Q7.33,-55.708 4.907,-62.678 Q0,-63.139 0,-68.507 Q0,-74.38 5.872,-74.38 Z M27.405,-42.391 Q27.022,-42.202 26.633,-42.013 Q15.66,-36.681 15.66,-35.23 Q15.66,-33.779 26.633,-28.447 Q27.022,-28.258 27.405,-28.069 Q27.788,-28.258 28.177,-28.447 Q39.15,-33.779 39.15,-35.23 Q39.15,-36.681 28.177,-42.013 Q27.788,-42.202 27.405,-42.391 Z M18.301,-62.635 Q21.229,-59.278 27.405,-55.695 Q33.581,-59.278 36.509,-62.635 L18.301,-62.635 Z"/>
  </g>
  <g id="Black-M" transform="matrix(1 0 0 1 2898.399 1126)">
   <path class="monochrome-0 multicolor-0:labelColor hierarchical-0:primary SFSymbolsPreviewWireframe" d="M7.5,-85.23 L62.5,-85.23 Q70,-85.23 70,-77.73 Q70,-70.874 63.733,-70.285 Q60.638,-61.384 49.99,-53.391 Q65,-44.42 65,-35.23 Q65,-26.04 49.99,-17.069 Q60.638,-9.076 63.733,-0.175 Q70,0.414 70,7.27 Q70,14.77 62.5,14.77 L7.5,14.77 Q0,14.77 0,7.27 Q0,0.414 6.267,-0.175 Q9.362,-9.076 20.01,-17.069 Q5,-26.04 5,-35.23 Q5,-44.42 20.01,-53.391 Q9.362,-61.384 6.267,-70.285 Q0,-70.874 0,-77.73 Q0,-85.23 7.5,-85.23 Z M35,-44.376 Q34.511,-44.134 34.014,-43.892 Q20,-37.083 20,-35.23 Q20,-33.377 34.014,-26.568 Q34.511,-26.326 35,-26.084 Q35.489,-26.326 35.986,-26.568 Q50,-33.377 50,-35.23 Q50,-37.083 35.986,-43.892 Q35.489,-44.134 35,-44.376 Z M23.373,-70.23 Q27.112,-65.942 35,-61.367 Q42.888,-65.942 46.627,-70.23 L23.373,-70.23 Z"/>
  </g>
  <g id="Black-L" transform="matrix(1 0 0 1 2888.249 1556)">
   <path class="monochrome-0 multicolor-0:labelColor hierarchical-0:primary SFSymbolsPreviewWireframe" d="M9.675,-99.73 L80.625,-99.73 Q90.3,-99.73 90.3,-90.055 Q90.3,-81.211 82.215,-80.451 Q78.223,-68.968 64.487,-58.657 Q83.85,-47.086 83.85,-35.23 Q83.85,-23.374 64.487,-11.803 Q78.223,-1.492 82.215,9.991 Q90.3,10.751 90.3,19.595 Q90.3,29.27 80.625,29.27 L9.675,29.27 Q0,29.27 0,19.595 Q0,10.751 8.085,9.991 Q12.077,-1.492 25.813,-11.803 Q6.45,-23.374 6.45,-35.23 Q6.45,-47.086 25.813,-58.657 Q12.077,-68.968 8.085,-80.451 Q0,-81.211 0,-90.055 Q0,-99.73 9.675,-99.73 Z M45.15,-47.029 Q44.519,-46.716 43.878,-46.404 Q25.8,-37.62 25.8,-35.23 Q25.8,-32.84 43.878,-24.056 Q44.519,-23.744 45.15,-23.431 Q45.781,-23.744 46.422,-24.056 Q64.5,-32.84 64.5,-35.23 Q64.5,-37.62 46.422,-46.404 Q45.781,-46.716 45.15,-47.029 Z M30.151,-80.38 Q34.975,-74.849 45.15,-68.947 Q55.325,-74.849 60.149,-80.38 L30.151,-80.38 Z"/>
  </g>
 </g>
</svg>
